<svg width="48" height="48" viewBox="0 0 48 48" fill="none" xmlns="http://www.w3.org/2000/svg">
<path fill-rule="evenodd" clip-rule="evenodd" d="M32.7273 2.18182C32.7273 3.3868 33.7041 4.36364 34.9091 4.36364H41.4545C42.6595 4.36364 43.6364 5.34047 43.6364 6.54545V13.0507C43.6364 14.2556 44.6132 15.2325 45.8182 15.2325C47.0232 15.2325 48 14.2556 48 13.0507V6.54545C48 2.9305 45.0695 0 41.4545 0H34.9091C33.7041 0 32.7273 0.976833 32.7273 2.18182ZM45.8182 32.7273C44.6132 32.7273 43.6364 33.7041 43.6364 34.9091V41.4545C43.6364 42.6595 42.6595 43.6364 41.4545 43.6364H34.9091C33.7041 43.6364 32.7273 44.6132 32.7273 45.8182C32.7273 47.0232 33.7041 48 34.9091 48H41.4545C45.0695 48 48 45.0695 48 41.4545V34.9091C48 33.7041 47.0232 32.7273 45.8182 32.7273ZM13.0909 43.6364C14.2959 43.6364 15.2727 44.6132 15.2727 45.8182C15.2727 47.0232 14.2959 48 13.0909 48H6.54545C2.9305 48 0 45.0695 0 41.4545V34.9091C0 33.7041 0.976833 32.7273 2.18182 32.7273C3.3868 32.7273 4.36364 33.7041 4.36364 34.9091V41.4545C4.36364 42.6595 5.34047 43.6364 6.54545 43.6364H13.0909ZM2.18182 15.2325C3.3868 15.2325 4.36364 14.2556 4.36364 13.0507V6.54545C4.36364 5.34047 5.34047 4.36364 6.54545 4.36364H13.0909C14.2959 4.36364 15.2727 3.3868 15.2727 2.18182C15.2727 0.976833 14.2959 0 13.0909 0H6.54545C2.9305 0 0 2.9305 0 6.54545V13.0507C0 14.2556 0.976833 15.2325 2.18182 15.2325Z" fill="#313645"/>
<path fill-rule="evenodd" clip-rule="evenodd" d="M15.2727 17.4546C15.2727 22.2745 19.1801 26.1818 24 26.1818C28.8199 26.1818 32.7273 22.2745 32.7273 17.4546C32.7273 12.6346 28.8199 8.72729 24 8.72729C19.1801 8.72729 15.2727 12.6346 15.2727 17.4546ZM28.3636 17.4546C28.3636 19.8645 26.41 21.8182 24 21.8182C21.59 21.8182 19.6364 19.8645 19.6364 17.4546C19.6364 15.0446 21.59 13.0909 24 13.0909C26.41 13.0909 28.3636 15.0446 28.3636 17.4546Z" fill="#0080EF"/>
<path fill-rule="evenodd" clip-rule="evenodd" d="M37.0909 34.9091C37.0909 27.6792 31.2299 21.8182 24 21.8182C16.7701 21.8182 10.9091 27.6792 10.9091 34.9091V37.091C10.9091 38.2959 11.8859 39.2728 13.0909 39.2728H34.9091C36.1141 39.2728 37.0909 38.2959 37.0909 37.091V34.9091ZM24 26.1819C28.8199 26.1819 32.7273 30.0892 32.7273 34.9091H15.2727C15.2727 30.0892 19.1801 26.1819 24 26.1819Z" fill="#0080EF"/>
</svg>
