<svg width="48" height="48" viewBox="0 0 48 48" fill="none" xmlns="http://www.w3.org/2000/svg">
<path d="M30.5455 37.6364C30.5455 36.4314 31.5223 35.4545 32.7273 35.4545C33.9323 35.4545 34.9091 36.4314 34.9091 37.6364V39.9441C34.9091 44.2764 32.143 48 28.3636 48H6.54545C2.7661 48 0 44.2764 0 39.9441V8.05594C0 3.72359 2.7661 0 6.54545 0H28.3636C32.143 0 34.9091 3.72359 34.9091 8.05594V11.4545C34.9091 12.6595 33.9323 13.6364 32.7273 13.6364C31.5223 13.6364 30.5455 12.6595 30.5455 11.4545V8.05594C30.5455 5.89992 29.4042 4.36364 28.3636 4.36364H6.54545C5.50487 4.36364 4.36364 5.89992 4.36364 8.05594V39.9441C4.36364 42.1001 5.50487 43.6364 6.54545 43.6364H28.3636C29.4042 43.6364 30.5455 42.1001 30.5455 39.9441V37.6364Z" fill="#313645"/>
<path d="M19.6364 40.9027C19.6364 42.1077 18.6595 43.0846 17.4546 43.0846C16.2496 43.0846 15.2727 42.1077 15.2727 40.9027V38.7337C15.2727 37.5287 16.2496 36.5519 17.4546 36.5519C18.6595 36.5519 19.6364 37.5287 19.6364 38.7337V40.9027Z" fill="#313645"/>
<path d="M32.7273 26.1819C31.5223 26.1819 30.5454 25.205 30.5454 24.0001C30.5454 22.7951 31.5223 21.8182 32.7273 21.8182H45.8182C47.0232 21.8182 48 22.7951 48 24.0001C48 25.205 47.0232 26.1819 45.8182 26.1819H32.7273Z" fill="#0080EF"/>
<path d="M38.9521 18.6748C39.626 17.6759 39.3626 16.3198 38.3638 15.6459C37.3649 14.9719 36.0088 15.2353 35.3348 16.2342L30.9184 22.7796C30.4208 23.5171 30.4208 24.4828 30.9184 25.2203L35.3348 31.7657C36.0088 32.7646 37.3649 33.028 38.3638 32.354C39.3626 31.6801 39.626 30.324 38.9521 29.3251L35.3591 24L38.9521 18.6748Z" fill="#0080EF"/>
</svg>
