<svg width="48" height="46" viewBox="0 0 48 46" fill="none" xmlns="http://www.w3.org/2000/svg">
<path d="M41.4546 19.6364C41.4546 18.4314 42.4314 17.4546 43.6364 17.4546C44.8414 17.4546 45.8182 18.4314 45.8182 19.6364V30.5455C45.8182 34.1604 42.8877 37.0909 39.2727 37.0909H8.72728C5.11232 37.0909 2.18182 34.1604 2.18182 30.5455V10.9091C2.18182 9.70413 3.15866 8.72729 4.36364 8.72729C5.56863 8.72729 6.54546 9.70413 6.54546 10.9091V30.5455C6.54546 31.7505 7.52229 32.7273 8.72728 32.7273H39.2727C40.4777 32.7273 41.4546 31.7505 41.4546 30.5455V19.6364Z" fill="#313645"/>
<path d="M22.0485 33.9334C22.5874 32.8556 23.898 32.4187 24.9757 32.9576C26.0535 33.4965 26.4904 34.8071 25.9515 35.8848L21.5878 44.6121C21.049 45.6899 19.7384 46.1267 18.6606 45.5879C17.5829 45.049 17.146 43.7384 17.6849 42.6606L22.0485 33.9334Z" fill="#313645"/>
<path d="M22.0485 35.8848C21.5096 34.8071 21.9465 33.4965 23.0242 32.9576C24.102 32.4187 25.4126 32.8556 25.9515 33.9334L30.3151 42.6606C30.854 43.7384 30.4171 45.049 29.3394 45.5879C28.2616 46.1267 26.951 45.6899 26.4121 44.6121L22.0485 35.8848Z" fill="#313645"/>
<path d="M13.0909 25.6364C13.0909 24.4314 14.0677 23.4546 15.2727 23.4546C16.4777 23.4546 17.4545 24.4314 17.4545 25.6364V27.8182C17.4545 29.0232 16.4777 30 15.2727 30C14.0677 30 13.0909 29.0232 13.0909 27.8182V25.6364Z" fill="#0080EF"/>
<path d="M21.8182 23.4545C21.8182 22.2495 22.795 21.2727 24 21.2727C25.205 21.2727 26.1818 22.2495 26.1818 23.4545V27.8182C26.1818 29.0231 25.205 30 24 30C22.795 30 21.8182 29.0231 21.8182 27.8182V23.4545Z" fill="#0080EF"/>
<path d="M30.5454 19.0909C30.5454 17.8859 31.5223 16.9091 32.7273 16.9091C33.9322 16.9091 34.9091 17.8859 34.9091 19.0909V27.8181C34.9091 29.0231 33.9322 30 32.7273 30C31.5223 30 30.5454 29.0231 30.5454 27.8181V19.0909Z" fill="#0080EF"/>
<path fill-rule="evenodd" clip-rule="evenodd" d="M43.6364 0H4.36364C1.95367 0 0 1.95367 0 4.36364V10.9091C0 12.1141 0.976833 13.0909 2.18182 13.0909H45.8182C47.0232 13.0909 48 12.1141 48 10.9091V4.36364C48 1.95367 46.0463 0 43.6364 0ZM43.6364 4.36364V8.72727H4.36364V4.36364H43.6364Z" fill="#313645"/>
</svg>
