<svg width="433" height="383" viewBox="0 0 433 383" fill="none" xmlns="http://www.w3.org/2000/svg">
<path opacity="0.159552" d="M245.738 3.35441C195.322 -3.1562 148.125 -1.55574 116.272 20.4926C84.8734 42.342 68.5687 84.3104 45.5422 126.757L44.8424 128.043C21.5017 171.005 -9.02325 214.448 2.52182 242.88C14.0669 271.313 67.6602 284.872 110.3 308.941C152.939 333.01 184.567 367.51 226.908 378.794C269.307 390.157 322.499 378.246 362.075 346.091C401.651 313.935 427.692 261.477 432.253 206.883C436.872 152.368 419.954 95.6369 384.706 60.0003C349.595 24.3854 296.154 9.86502 245.738 3.35441Z" fill="#40BFFD"/>
<path d="M223.709 366.092H143.009C143.014 357.816 149.723 351.107 157.999 351.102H158.139C158.139 351.102 175.266 348.868 175.266 334.879V251.41H191.454V334.879C191.454 348.867 208.581 351.102 208.581 351.102H208.721C212.696 351.102 216.509 352.682 219.32 355.493C222.13 358.304 223.709 362.117 223.709 366.092Z" fill="#129F72"/>
<path d="M191.452 251.41V254.73L175.264 259.535V251.41H191.452Z" fill="#129F72"/>
<path d="M207.239 270.635H159.479C157.121 270.635 154.86 269.699 153.193 268.032C151.526 266.365 150.589 264.104 150.589 261.746C150.589 256.836 154.569 252.856 159.479 252.856H207.239C212.149 252.856 216.129 256.836 216.129 261.746C216.129 264.104 215.192 266.365 213.525 268.032C211.858 269.699 209.597 270.635 207.239 270.635Z" fill="#045633"/>
<path d="M174.8 266.48H191.746V278.105H174.8V266.48Z" fill="#045633"/>
<path d="M242.529 262.968C206.261 262.926 176.871 233.536 176.829 197.268V116.777C176.748 113.76 178.311 110.936 180.912 109.403C183.512 107.871 186.74 107.871 189.34 109.403C191.941 110.936 193.504 113.76 193.423 116.777V197.268C193.453 224.376 215.422 246.345 242.53 246.375C247.025 246.496 250.607 250.175 250.607 254.672C250.607 259.169 247.025 262.848 242.53 262.969L242.529 262.968Z" fill="#037A4A"/>
<path d="M185.125 108.481H96.537L101.924 173.481L99.34 222.369L143.525 250.5L153.942 262.971H242.53L218.452 247.707L200.494 227.354L193.311 222.964L187.325 183.457L186.925 135.968L185.125 108.481Z" fill="#037A4A"/>
<path d="M153.941 262.968C117.673 262.926 88.2829 233.536 88.241 197.268V116.777C88.1598 113.76 89.7232 110.936 92.3237 109.403C94.9242 107.871 98.1518 107.871 100.752 109.403C103.353 110.936 104.916 113.76 104.835 116.777V197.268C104.865 224.376 126.834 246.345 153.942 246.375C156.959 246.294 159.783 247.857 161.316 250.458C162.848 253.058 162.848 256.286 161.316 258.886C159.783 261.487 156.959 263.05 153.942 262.969L153.941 262.968Z" fill="#129F72"/>
<path d="M225.252 318.098C223.626 318.995 222.497 320.583 222.185 322.414C220.805 330.714 220.624 355.037 224.698 361.43C229.582 369.093 269.098 366.83 272.628 362.986C276.158 359.142 244.969 352.059 241.205 348.414C237.441 344.769 240.256 332.414 239.995 328.144C239.751 324.166 236.452 311.853 225.252 318.098Z" fill="#87171A"/>
<path d="M305.295 286.322C304.557 287.664 304.541 289.287 305.253 290.643C308.502 296.843 318.818 315.727 325.11 318.106C332.653 320.957 362.701 298.489 363.33 294.269C363.959 290.049 337.305 299.857 332.654 299.169C328.003 298.481 323.727 288.903 321.339 286.169C319.114 283.621 310.348 276.919 305.295 286.322Z" fill="#87171A"/>
<path d="M150.874 195.315C148.106 194.476 145.102 195.054 142.843 196.862C140.585 198.669 139.362 201.473 139.574 204.358C140.974 222.527 150.303 252.943 197.461 250.43C227.449 248.962 251.561 242.881 265.195 257.77C278.829 272.659 298.328 306.442 316.363 312.503C316.782 312.693 328.163 299.784 331.31 298.735C334.457 297.686 317.202 278.135 310.91 249.498C304.828 229.879 278.615 197.584 194.943 201.359C180.029 201.638 165.162 199.599 150.874 195.315Z" fill="#3478F6"/>
<path d="M262.261 230.509C262.261 230.509 292.513 225.999 280.89 276.044C281.481 276.734 270.011 263.23 270.011 263.23C270.011 263.23 276.103 232.606 262.261 230.509Z" fill="#2253F6"/>
<path d="M139.551 199.577C139.551 199.577 140.192 215.285 141.776 216.977C143.36 218.669 170.125 209.43 190.19 207.232C192.955 205.658 158.705 194.125 139.551 199.577Z" fill="#2253F6"/>
<path d="M217.95 337.383C217.95 337.383 227.084 216.247 268.405 231.905C289.719 241.691 276.235 287.363 240.351 345.212C239.915 346.299 218.82 339.558 217.95 337.383Z" fill="#3478F6"/>
<path d="M194.109 203.667C208.983 203.973 223.818 205.304 238.509 207.651C261.003 211.426 274.917 213.037 273.996 212.633C273.075 212.229 235.163 196.215 190.346 201.374C173.208 202.199 194.109 203.667 194.109 203.667Z" fill="#2253F6"/>
<path d="M234.792 149.286C234.792 149.286 258.279 169.903 282.605 169.694C289.525 170.533 297.705 188.148 281.557 185.841C265.409 183.534 202.578 161.382 200.651 149.286C198.724 137.19 227.662 137.264 234.792 149.286Z" fill="#FAC896"/>
<path d="M209.25 153.078C209.25 153.078 257.503 163.692 267.086 171.578C274.386 177.586 274.247 183.601 273.847 185.349C273.447 187.097 218.784 155.781 207.599 154.523C196.414 153.265 209.25 153.078 209.25 153.078Z" fill="#F39C55"/>
<path d="M206.515 108.812C209.23 107.901 212.212 109.025 213.651 111.501C219.488 121.257 237.339 150.993 238.566 151.869C240.034 152.917 213.172 149.982 211.819 155.644C210.582 160.818 191.2 114.29 206.515 108.812Z" fill="#FCBC2E"/>
<path fill-rule="evenodd" clip-rule="evenodd" d="M208.304 112.109L209.504 110.909C209.648 110.765 209.704 110.555 209.652 110.358C209.599 110.161 209.445 110.007 209.248 109.954C209.051 109.902 208.841 109.958 208.697 110.102L207.497 111.302C207.276 111.525 207.277 111.885 207.499 112.107C207.721 112.329 208.08 112.33 208.304 112.11V112.109ZM218.08 122.249C218.305 122.458 218.655 122.452 218.873 122.235C219.09 122.017 219.096 121.667 218.887 121.442L217.687 120.242C217.463 120.021 217.104 120.023 216.882 120.245C216.66 120.467 216.659 120.827 216.88 121.05L218.08 122.249ZM221.639 127.306C221.422 127.088 221.416 126.738 221.625 126.513L222.278 125.86L222.886 126.867L222.432 127.32C222.207 127.529 221.857 127.523 221.639 127.306ZM218.127 129.462L219.327 130.662V130.661C219.548 130.884 219.547 131.244 219.325 131.466C219.103 131.688 218.744 131.689 218.52 131.469L217.32 130.269C217.111 130.044 217.117 129.694 217.334 129.476C217.552 129.259 217.902 129.252 218.127 129.462ZM216.88 135.342L218.08 136.542C218.222 136.695 218.437 136.758 218.639 136.706C218.841 136.655 219 136.496 219.051 136.294C219.103 136.092 219.04 135.877 218.887 135.735L217.687 134.535C217.462 134.325 217.112 134.332 216.894 134.549C216.677 134.767 216.671 135.117 216.88 135.342ZM218.127 148.823L219.327 150.023C219.548 150.246 219.547 150.606 219.325 150.828C219.103 151.05 218.744 151.051 218.52 150.831L217.32 149.631C217.111 149.406 217.117 149.056 217.334 148.838C217.552 148.621 217.902 148.614 218.127 148.824V148.823ZM216.88 140.413L218.08 141.613C218.305 141.822 218.655 141.816 218.873 141.599C219.09 141.381 219.096 141.031 218.887 140.806L217.687 139.606C217.543 139.46 217.332 139.403 217.134 139.456C216.936 139.508 216.781 139.663 216.729 139.861C216.677 140.059 216.734 140.27 216.88 140.414V140.413ZM223.632 134.531C223.409 134.309 223.048 134.309 222.825 134.531L221.625 135.731C221.416 135.956 221.422 136.306 221.639 136.524C221.857 136.741 222.207 136.747 222.432 136.538L223.632 135.338C223.854 135.115 223.854 134.754 223.632 134.531ZM218.639 146.844C218.437 146.896 218.222 146.833 218.08 146.68L216.88 145.48C216.727 145.338 216.664 145.123 216.716 144.921C216.767 144.718 216.925 144.56 217.128 144.509C217.33 144.457 217.545 144.52 217.687 144.673L218.887 145.873C219.04 146.015 219.103 146.23 219.051 146.432C219 146.634 218.841 146.793 218.639 146.844ZM223.632 139.602C223.409 139.38 223.048 139.38 222.825 139.602L221.625 140.802C221.416 141.027 221.422 141.377 221.639 141.595C221.857 141.812 222.207 141.818 222.432 141.609L223.632 140.409C223.852 140.186 223.851 139.827 223.631 139.605L223.632 139.602ZM222.825 144.674C223.048 144.452 223.409 144.452 223.632 144.674L223.631 144.676C223.853 144.898 223.853 145.258 223.632 145.481L222.432 146.681C222.207 146.89 221.857 146.884 221.639 146.667C221.422 146.449 221.416 146.099 221.625 145.874L222.825 144.674ZM221.18 150.02L222.38 148.82L222.381 148.821C222.606 148.611 222.956 148.618 223.174 148.835C223.391 149.053 223.397 149.403 223.188 149.628L221.988 150.828C221.765 151.051 221.403 151.051 221.18 150.828C220.957 150.605 220.957 150.243 221.18 150.02ZM234.59 148.82C234.448 148.667 234.233 148.604 234.031 148.656C233.828 148.707 233.67 148.865 233.619 149.068C233.567 149.27 233.63 149.485 233.783 149.627L234.983 150.827C235.207 151.047 235.566 151.046 235.788 150.824C236.01 150.602 236.011 150.242 235.79 150.019L234.59 148.82ZM233.343 145.481C233.121 145.258 233.121 144.897 233.343 144.674L233.344 144.676C233.436 144.586 233.557 144.531 233.685 144.52C234.195 145.337 234.678 146.105 235.126 146.813C234.922 146.883 234.697 146.832 234.543 146.681L233.343 145.481ZM216.876 126.121L218.076 127.321C218.301 127.53 218.651 127.524 218.869 127.307C219.086 127.089 219.092 126.739 218.883 126.514L217.683 125.314C217.458 125.104 217.108 125.111 216.89 125.328C216.673 125.546 216.667 125.896 216.876 126.121ZM223.189 130.267L221.989 131.467L221.99 131.468C221.767 131.691 221.405 131.691 221.182 131.468C220.959 131.245 220.959 130.883 221.182 130.66L222.382 129.46C222.607 129.25 222.957 129.257 223.175 129.474C223.392 129.692 223.398 130.042 223.189 130.267ZM237.648 150.827C237.7 150.878 237.761 150.919 237.829 150.947C237.771 150.861 237.706 150.768 237.638 150.669C237.589 150.597 237.538 150.523 237.486 150.447C237.49 150.591 237.549 150.727 237.651 150.829L237.648 150.827ZM209.136 139.605C209.36 139.383 209.72 139.383 209.944 139.605C210.165 139.829 210.164 140.189 209.943 140.412L208.743 141.612C208.518 141.821 208.168 141.815 207.95 141.598C207.733 141.38 207.727 141.03 207.936 140.805L209.136 139.605ZM208.304 131.469L209.504 130.269C209.713 130.044 209.707 129.694 209.49 129.476C209.272 129.259 208.922 129.252 208.697 129.462L207.497 130.662C207.276 130.885 207.277 131.245 207.499 131.467C207.721 131.689 208.08 131.69 208.304 131.47V131.469ZM209.136 120.245C209.36 120.023 209.72 120.023 209.944 120.245C210.165 120.469 210.164 120.829 209.943 121.052L208.743 122.252C208.518 122.461 208.168 122.455 207.95 122.238C207.733 122.02 207.727 121.67 207.936 121.445L209.136 120.245ZM209.136 134.534C209.359 134.312 209.72 134.312 209.944 134.534C210.165 134.758 210.165 135.118 209.943 135.341L208.743 136.541C208.518 136.75 208.168 136.744 207.95 136.527C207.733 136.309 207.727 135.959 207.936 135.734L209.136 134.534ZM204.832 112.109C205.056 112.329 205.415 112.328 205.637 112.106C205.859 111.884 205.86 111.524 205.639 111.301L204.439 110.101C204.408 110.076 204.374 110.055 204.339 110.037C204.057 110.266 203.791 110.515 203.545 110.782C203.567 110.828 203.595 110.87 203.629 110.908L204.832 112.109ZM209.504 149.629L208.304 150.829H208.302C208.257 150.871 208.205 150.906 208.149 150.931C207.99 150.585 207.828 150.228 207.663 149.855L208.697 148.822C208.922 148.612 209.272 148.619 209.49 148.836C209.707 149.054 209.713 149.404 209.504 149.629ZM209.136 115.174L207.936 116.374C207.727 116.599 207.733 116.949 207.95 117.167C208.168 117.384 208.518 117.39 208.743 117.181L209.943 115.981C210.163 115.757 210.162 115.398 209.94 115.176C209.718 114.954 209.358 114.953 209.135 115.174H209.136ZM209.563 153.732C209.706 153.735 209.842 153.793 209.944 153.894C210.114 154.066 210.156 154.326 210.049 154.543C209.894 154.298 209.732 154.032 209.563 153.732ZM209.944 125.316C209.72 125.095 209.36 125.095 209.136 125.316L207.936 126.516C207.727 126.741 207.733 127.091 207.95 127.309C208.168 127.526 208.518 127.532 208.743 127.323L209.943 126.123C210.165 125.9 210.165 125.54 209.944 125.316ZM205.199 117.18C204.976 117.403 204.615 117.403 204.392 117.18L203.192 115.98C202.983 115.755 202.989 115.405 203.206 115.187C203.424 114.97 203.774 114.963 203.999 115.173L205.199 116.373C205.422 116.596 205.422 116.957 205.199 117.18ZM203.192 126.124L204.392 127.324C204.615 127.547 204.976 127.547 205.199 127.324C205.422 127.101 205.422 126.74 205.199 126.517L203.999 125.317C203.774 125.107 203.424 125.114 203.206 125.331C202.989 125.549 202.983 125.899 203.192 126.124ZM207.936 145.877L209.136 144.677H209.135C209.358 144.456 209.718 144.457 209.94 144.679C210.162 144.901 210.163 145.26 209.943 145.484L208.743 146.684C208.518 146.893 208.168 146.887 207.95 146.67C207.733 146.452 207.727 146.102 207.936 145.877ZM203.192 121.053L204.392 122.253C204.615 122.476 204.976 122.476 205.199 122.253C205.422 122.03 205.422 121.669 205.199 121.446L203.999 120.246C203.855 120.1 203.644 120.043 203.446 120.096C203.248 120.148 203.093 120.303 203.041 120.501C202.989 120.699 203.046 120.91 203.192 121.054V121.053ZM205.198 140.805C205.42 141.028 205.42 141.389 205.198 141.612L205.196 141.611C205.036 141.767 204.8 141.815 204.592 141.735C204.351 141.015 204.117 140.282 203.892 139.535C203.93 139.554 203.965 139.578 203.998 139.605L205.198 140.805ZM204.391 136.541C204.533 136.694 204.748 136.757 204.95 136.705C205.152 136.654 205.311 136.495 205.362 136.293C205.414 136.091 205.351 135.876 205.198 135.734L203.998 134.534C203.773 134.324 203.423 134.331 203.205 134.548C202.988 134.766 202.982 135.116 203.191 135.341L204.391 136.541ZM205.636 131.467C205.414 131.689 205.055 131.69 204.831 131.47L203.631 130.269C203.422 130.044 203.428 129.694 203.645 129.476C203.863 129.259 204.213 129.252 204.438 129.462L205.638 130.662C205.859 130.885 205.858 131.245 205.636 131.467Z" fill="#EED095"/>
<path d="M213.82 112.969C213.82 112.969 224.194 148.76 223.676 152.033C223.371 152.042 215.07 151.979 213.448 153.077C211.826 154.175 210.989 114.122 213.82 112.969Z" fill="#FDA428"/>
<path d="M218.342 72.2345C222.501 75.3806 223.321 81.302 220.175 85.4603L202.917 108.27C199.771 112.429 193.85 113.249 189.691 110.103C185.533 106.957 184.712 101.036 187.859 96.8774L205.116 74.0672C208.263 69.9089 214.184 69.0884 218.342 72.2345Z" fill="#FAC896"/>
<path d="M211.095 92.943C211.095 92.943 213.402 114.123 214.031 114.333C214.66 114.543 192.012 106.784 194.738 104.896C197.464 103.008 203.546 92.314 211.095 92.943Z" fill="#FAC896"/>
<path d="M233.043 48.974C233.043 48.974 243.808 47.716 245.067 62.256C245.767 71.483 237.098 85.463 230.108 78.333C223.118 71.203 222.838 54.845 233.043 48.974Z" fill="#192684"/>
<path d="M211.89 96.433L219.236 86.724C219.236 86.724 205.307 75.024 203.747 75.881C202.187 76.738 201.195 83.985 211.89 96.433Z" fill="#F39C55"/>
<path d="M217.7 89.798C226.676 89.798 233.952 79.7987 233.952 67.464C233.952 55.1293 226.676 45.13 217.7 45.13C208.724 45.13 201.448 55.1293 201.448 67.464C201.448 79.7987 208.724 89.798 217.7 89.798Z" fill="#FAC896"/>
<path d="M200.61 75.328C203.853 75.328 206.482 71.9947 206.482 67.883C206.482 63.7712 203.853 60.438 200.61 60.438C197.367 60.438 194.738 63.7712 194.738 67.883C194.738 71.9947 197.367 75.328 200.61 75.328Z" fill="#FAC896"/>
<path d="M193.214 89.797C193.214 89.797 199.151 106.362 212.987 108.67C215.499 109.3 226.982 166.339 203.101 204.925C201.869 206.183 149.862 214.152 137.909 202.618C138.118 202.199 128.57 100.282 193.214 89.797Z" fill="#FCBC2E"/>
<path d="M233.953 75.852C233.953 75.852 233.639 64.213 228.396 61.487C227.767 61.387 211.196 68.197 209.208 67.464C206.482 67.883 206.918 70.31 206.482 70.505C206.046 70.7 204.793 70.605 205.433 67.884C206.073 65.163 203.516 59.584 199.142 64.109C194.768 68.634 197.769 75.816 202.807 74.786C203.965 75.586 209.298 83.886 198.662 82.598C188.026 81.31 184.812 63.935 188.447 52.89C192.082 41.845 210.536 29.263 226.613 37.512C234.302 41.147 238.053 51.412 238.624 58.793C239.195 66.174 235.436 74.916 233.953 75.852Z" fill="#192684"/>
<path d="M219.637 36.951C219.637 36.951 214.031 9.68898 185.791 17.658C157.551 25.627 147.065 64.492 135.741 66.03C124.417 67.568 82.476 68.13 88.907 95.389C95.338 122.648 133.644 90.776 147.345 88.119C161.046 85.462 170.272 83.785 175.165 77.913C180.058 72.041 185.79 50.513 192.78 51.77C199.77 53.027 219.637 36.951 219.637 36.951Z" fill="#192684"/>
<path d="M165.983 110.547C165.983 110.547 156.742 123.34 160.799 147.311C163.686 164.37 174.12 179.388 189.589 187.139C197.198 190.951 204.727 192.479 210.046 191.504C210.131 191.255 213.791 179.321 214.222 177.478C214.653 175.635 157.675 150.904 165.983 110.547Z" fill="#FDA428"/>
<path d="M200.659 152.193C221.813 155.374 242.303 161.998 261.315 171.804C264.911 173.649 268.059 176.261 270.536 179.455C273.349 183.163 274.603 186.796 273.377 188.568C271.49 191.294 265.618 183.116 252.406 181.228C239.194 179.34 201.029 184.793 192.85 178.502C185.55 172.885 182.09 157.402 193.374 152.958C195.696 152.079 198.205 151.816 200.659 152.193Z" fill="#FAC896"/>
<path d="M206.153 153.078H209.253C209.253 153.078 200.222 172.526 201.221 181.178C201.451 181.514 192.904 180.402 191.481 177.283C190.058 174.164 206.153 153.078 206.153 153.078Z" fill="#F39C55"/>
<path d="M161.395 127.964C161.395 127.964 163.911 178.503 196.416 180.18C195.577 179.551 203.362 154.596 214.044 154.072C214.033 154.33 200.851 130.462 195.116 114.736C192.057 106.09 182.633 101.49 173.935 104.397C167.532 106.651 161.843 112.955 161.395 127.964Z" fill="#FCBC2E"/>
<path fill-rule="evenodd" clip-rule="evenodd" d="M178.355 106.312C178.132 106.535 177.771 106.535 177.548 106.312L176.348 105.113C176.202 104.969 176.145 104.758 176.197 104.56C176.249 104.362 176.404 104.207 176.602 104.155C176.8 104.102 177.011 104.159 177.155 104.305L178.355 105.505C178.578 105.728 178.578 106.089 178.355 106.312ZM182.661 114.327L181.461 115.527L181.46 115.528C181.236 115.748 180.877 115.747 180.655 115.525C180.433 115.303 180.432 114.943 180.653 114.72L181.853 113.52C181.997 113.374 182.208 113.317 182.406 113.369C182.604 113.421 182.759 113.576 182.811 113.774C182.864 113.972 182.807 114.183 182.661 114.327ZM177.549 125.675L176.349 124.475V124.476C176.128 124.253 176.129 123.893 176.351 123.671C176.573 123.449 176.932 123.448 177.156 123.668L178.356 124.868C178.579 125.091 178.579 125.452 178.356 125.675C178.133 125.898 177.772 125.898 177.549 125.675ZM183.1 129.545L181.9 130.745C181.677 130.966 181.317 130.965 181.095 130.743C180.873 130.521 180.872 130.161 181.092 129.938L182.292 128.738C182.515 128.515 182.876 128.515 183.099 128.738C183.322 128.961 183.322 129.322 183.099 129.545H183.1ZM183.1 137.956C182.877 137.733 182.516 137.733 182.293 137.956L181.093 139.156C180.873 139.379 180.874 139.739 181.096 139.961C181.318 140.183 181.678 140.184 181.901 139.963L183.101 138.763C183.323 138.54 183.323 138.179 183.1 137.956ZM183.1 143.027C182.876 142.806 182.517 142.806 182.293 143.027L181.093 144.227C180.873 144.45 180.874 144.81 181.096 145.032C181.318 145.254 181.678 145.255 181.901 145.034L183.101 143.834C183.322 143.61 183.322 143.25 183.1 143.027ZM183.1 162.382C182.876 162.161 182.517 162.161 182.293 162.382L181.093 163.582C180.873 163.805 180.874 164.165 181.096 164.387C181.318 164.609 181.678 164.61 181.901 164.389L183.101 163.189C183.319 162.966 183.319 162.609 183.1 162.387V162.382ZM181.461 154.247C181.237 154.468 180.878 154.468 180.654 154.247V154.251C180.546 154.144 180.486 153.998 180.485 153.846C180.485 153.694 180.545 153.548 180.653 153.44L181.853 152.24C181.997 152.094 182.208 152.037 182.406 152.089C182.604 152.141 182.759 152.296 182.811 152.494C182.864 152.692 182.807 152.903 182.661 153.047L181.461 154.247ZM180.654 173.606C180.877 173.828 181.238 173.828 181.461 173.606L182.661 172.406C182.807 172.262 182.864 172.051 182.811 171.853C182.759 171.655 182.604 171.5 182.406 171.448C182.208 171.396 181.997 171.453 181.853 171.599L180.653 172.799C180.545 172.907 180.484 173.053 180.484 173.205C180.485 173.358 180.546 173.504 180.654 173.611V173.606ZM182.293 167.454C182.516 167.232 182.877 167.232 183.1 167.454V167.458C183.32 167.68 183.32 168.038 183.101 168.261L181.901 169.461C181.678 169.682 181.318 169.681 181.096 169.459C180.874 169.237 180.873 168.877 181.093 168.654L182.293 167.454ZM183.1 157.312C182.877 157.089 182.516 157.089 182.293 157.312L181.093 158.512C180.873 158.735 180.874 159.095 181.096 159.317C181.318 159.539 181.678 159.54 181.901 159.319L183.101 158.119C183.321 157.896 183.32 157.538 183.1 157.316V157.312ZM176.348 110.184L177.548 111.384C177.69 111.537 177.905 111.6 178.107 111.548C178.309 111.497 178.468 111.338 178.519 111.136C178.571 110.934 178.508 110.719 178.355 110.577L177.155 109.377C176.93 109.168 176.58 109.174 176.362 109.391C176.145 109.609 176.139 109.959 176.348 110.184ZM176.35 162.387C176.572 162.165 176.931 162.164 177.155 162.384L178.355 163.585C178.508 163.727 178.571 163.942 178.519 164.144C178.468 164.346 178.309 164.505 178.107 164.556C177.905 164.608 177.69 164.545 177.548 164.392L176.348 163.192C176.127 162.969 176.128 162.609 176.35 162.387ZM176.348 119.401L177.548 120.601C177.69 120.754 177.905 120.817 178.107 120.765C178.309 120.714 178.468 120.555 178.519 120.353C178.571 120.151 178.508 119.936 178.355 119.794L177.155 118.594C176.93 118.385 176.58 118.391 176.362 118.608C176.145 118.826 176.139 119.176 176.348 119.401ZM182.292 109.376C182.515 109.154 182.876 109.154 183.099 109.376L183.1 109.379C183.321 109.602 183.321 109.96 183.1 110.183L181.9 111.383C181.677 111.604 181.317 111.603 181.095 111.381C180.873 111.159 180.872 110.799 181.092 110.576L182.292 109.376ZM178.354 158.512L177.154 157.312C176.931 157.089 176.57 157.089 176.347 157.312C176.124 157.535 176.124 157.896 176.347 158.119L177.547 159.319C177.77 159.542 178.131 159.542 178.354 159.319C178.577 159.096 178.577 158.735 178.354 158.512ZM182.292 123.664C182.516 123.443 182.875 123.443 183.099 123.664L183.1 123.667C183.32 123.89 183.32 124.248 183.1 124.471L181.9 125.671C181.677 125.892 181.317 125.891 181.095 125.669C180.873 125.447 180.872 125.087 181.092 124.864L182.292 123.664ZM183.099 118.593C182.876 118.371 182.515 118.371 182.292 118.593L181.092 119.793C180.872 120.016 180.873 120.376 181.095 120.598C181.317 120.82 181.677 120.821 181.9 120.6L183.1 119.4C183.317 119.178 183.317 118.823 183.1 118.601L183.099 118.593ZM182.292 104.304C182.516 104.083 182.875 104.083 183.099 104.304L183.1 104.307C183.32 104.53 183.32 104.888 183.1 105.111L181.9 106.311C181.677 106.532 181.317 106.531 181.095 106.309C180.873 106.087 180.872 105.727 181.092 105.504L182.292 104.304ZM183.099 148.096C182.876 147.874 182.515 147.874 182.292 148.096L181.092 149.296C180.872 149.519 180.873 149.879 181.095 150.101C181.317 150.323 181.677 150.324 181.9 150.103L183.1 148.903C183.319 148.681 183.319 148.323 183.1 148.101L183.099 148.096ZM168.603 137.954C168.826 137.731 169.187 137.731 169.41 137.954L169.411 137.956C169.632 138.179 169.632 138.538 169.411 138.761L168.211 139.961C167.988 140.182 167.628 140.181 167.406 139.959C167.184 139.737 167.183 139.377 167.403 139.154L168.603 137.954ZM169.41 128.736C169.187 128.514 168.826 128.514 168.603 128.736L167.403 129.936C167.183 130.159 167.184 130.519 167.406 130.741C167.628 130.963 167.988 130.964 168.211 130.743L169.411 129.543C169.632 129.32 169.632 128.962 169.411 128.739L169.41 128.736ZM168.603 123.664C168.827 123.443 169.186 123.443 169.41 123.664L169.411 123.667C169.631 123.89 169.631 124.248 169.411 124.471L168.211 125.671C167.988 125.892 167.628 125.891 167.406 125.669C167.184 125.447 167.183 125.087 167.403 124.864L168.603 123.664ZM169.41 109.376C169.187 109.154 168.826 109.154 168.603 109.376L167.403 110.576C167.183 110.799 167.184 111.159 167.406 111.381C167.628 111.603 167.988 111.604 168.211 111.383L169.411 110.183C169.632 109.96 169.632 109.602 169.411 109.379L169.41 109.376ZM168.603 118.594C168.826 118.372 169.187 118.372 169.41 118.594L169.411 118.601C169.628 118.823 169.628 119.179 169.411 119.401L168.211 120.601C167.988 120.822 167.628 120.821 167.406 120.599C167.184 120.377 167.183 120.017 167.403 119.794L168.603 118.594ZM167.771 115.529L168.971 114.329C169.18 114.104 169.174 113.754 168.957 113.536C168.739 113.319 168.389 113.313 168.164 113.522L166.964 114.722C166.741 114.945 166.741 115.307 166.964 115.53C167.187 115.753 167.549 115.753 167.772 115.53L167.771 115.529ZM167.403 149.296L168.603 148.096H168.604C168.827 147.873 169.188 147.873 169.411 148.096C169.634 148.319 169.634 148.68 169.411 148.903L168.211 150.103C167.988 150.324 167.628 150.323 167.406 150.101C167.184 149.879 167.183 149.519 167.403 149.296ZM166.963 134.888C167.187 135.11 167.547 135.11 167.771 134.888L168.971 133.688C169.18 133.463 169.174 133.113 168.957 132.895C168.739 132.678 168.389 132.672 168.164 132.881L166.964 134.081C166.741 134.305 166.741 134.667 166.964 134.891L166.963 134.888ZM168.603 143.024C168.827 142.803 169.186 142.803 169.41 143.024L169.411 143.027C169.631 143.25 169.631 143.608 169.411 143.831L168.211 145.031C167.988 145.252 167.628 145.251 167.406 145.029C167.184 144.807 167.183 144.447 167.403 144.224L168.603 143.024ZM163.099 132.882C162.877 133.105 162.877 133.466 163.099 133.689L164.299 134.889C164.523 135.109 164.882 135.108 165.104 134.886C165.326 134.664 165.327 134.304 165.106 134.081L163.906 132.881C163.682 132.66 163.321 132.662 163.099 132.885V132.882ZM164.665 144.224C164.887 144.447 164.887 144.808 164.665 145.031L164.666 145.034C164.516 145.182 164.296 145.234 164.095 145.17C163.924 144.491 163.763 143.825 163.611 143.17L164.665 144.224ZM166.965 154.249C167.189 154.47 167.549 154.47 167.773 154.249L168.973 153.049C169.182 152.824 169.176 152.474 168.959 152.256C168.741 152.039 168.391 152.033 168.166 152.242L166.966 153.442C166.854 153.557 166.795 153.714 166.805 153.874C166.841 153.967 166.876 154.061 166.912 154.158L166.92 154.179C166.933 154.204 166.948 154.228 166.964 154.251L166.965 154.249ZM168.605 157.314C168.828 157.091 169.189 157.091 169.412 157.314L169.411 157.316C169.631 157.539 169.63 157.899 169.408 158.121L168.821 158.707C168.652 158.339 168.486 157.969 168.321 157.597L168.605 157.314ZM163.86 139.96C164.085 140.169 164.435 140.163 164.653 139.946C164.87 139.728 164.876 139.378 164.667 139.153L163.467 137.953C163.244 137.73 162.882 137.73 162.659 137.953C162.623 137.994 162.592 138.039 162.569 138.089L162.577 138.137C162.617 138.356 162.656 138.576 162.698 138.799L163.86 139.96ZM181.467 134.889C181.244 135.111 180.883 135.111 180.66 134.889L180.654 134.891C180.547 134.783 180.488 134.637 180.489 134.485C180.49 134.334 180.551 134.189 180.659 134.082L181.859 132.882C182.003 132.736 182.214 132.679 182.412 132.731C182.61 132.783 182.765 132.938 182.817 133.136C182.87 133.334 182.813 133.545 182.667 133.689L181.467 134.889ZM162.66 124.473L163.86 125.673C164.002 125.826 164.217 125.889 164.419 125.837C164.621 125.786 164.78 125.627 164.831 125.425C164.883 125.223 164.82 125.008 164.667 124.866L163.467 123.666C163.244 123.443 162.882 123.443 162.659 123.666C162.436 123.889 162.436 124.251 162.659 124.474L162.66 124.473ZM164.653 120.586C164.435 120.803 164.085 120.809 163.86 120.6L162.659 119.4C162.439 119.176 162.44 118.817 162.662 118.595C162.884 118.373 163.244 118.372 163.467 118.593L164.667 119.793C164.876 120.018 164.87 120.368 164.653 120.586ZM165.108 115.529C165.331 115.306 165.331 114.944 165.108 114.721L164.068 113.681C163.904 114.048 163.747 114.43 163.594 114.821L164.301 115.528C164.523 115.749 164.882 115.75 165.106 115.531L165.108 115.529ZM164.653 130.729C164.435 130.946 164.085 130.952 163.86 130.743L162.659 129.543C162.439 129.319 162.44 128.96 162.662 128.738C162.884 128.516 163.244 128.515 163.467 128.736L164.667 129.936C164.876 130.161 164.87 130.511 164.653 130.729ZM207.314 157.314C207.091 157.093 206.731 157.094 206.509 157.316C206.287 157.538 206.286 157.897 206.506 158.121L206.556 158.171C206.817 157.886 207.083 157.613 207.356 157.351L207.314 157.314ZM194.014 150.103L192.814 148.903C192.591 148.68 192.591 148.319 192.814 148.096C193.037 147.873 193.398 147.873 193.621 148.096L194.821 149.296C194.974 149.438 195.037 149.653 194.985 149.855C194.934 150.057 194.775 150.216 194.573 150.267C194.371 150.319 194.156 150.256 194.014 150.103ZM192.814 143.833L194.014 145.033C194.156 145.186 194.371 145.249 194.573 145.197C194.775 145.146 194.934 144.987 194.985 144.785C195.037 144.583 194.974 144.368 194.821 144.226L193.621 143.026C193.397 142.806 193.038 142.807 192.816 143.029C192.594 143.251 192.593 143.611 192.814 143.834V143.833ZM194.014 164.393L192.814 163.193V163.194C192.593 162.971 192.594 162.611 192.816 162.389C193.038 162.167 193.397 162.166 193.621 162.386L194.821 163.586C194.974 163.728 195.037 163.943 194.985 164.145C194.934 164.347 194.775 164.506 194.573 164.557C194.371 164.609 194.156 164.546 194.014 164.393ZM192.814 138.761L194.014 139.961C194.156 140.114 194.371 140.177 194.573 140.125C194.775 140.074 194.934 139.915 194.985 139.713C195.037 139.511 194.974 139.296 194.821 139.154L193.621 137.954C193.398 137.731 193.037 137.731 192.814 137.954C192.591 138.177 192.591 138.538 192.814 138.761ZM194.014 159.321L192.814 158.121C192.591 157.898 192.591 157.537 192.814 157.314C193.037 157.091 193.398 157.091 193.621 157.314L194.821 158.514C194.965 158.658 195.021 158.868 194.969 159.065C194.916 159.262 194.762 159.416 194.565 159.469C194.368 159.521 194.158 159.465 194.014 159.321ZM192.814 124.473L194.014 125.673C194.237 125.896 194.598 125.896 194.821 125.673C195.044 125.45 195.044 125.089 194.821 124.866L193.621 123.666C193.397 123.446 193.038 123.447 192.816 123.669C192.594 123.891 192.593 124.251 192.814 124.474V124.473ZM194.014 130.743L192.814 129.543C192.591 129.32 192.591 128.959 192.814 128.736C193.037 128.513 193.398 128.513 193.621 128.736L194.821 129.936C194.974 130.078 195.037 130.293 194.985 130.495C194.934 130.697 194.775 130.856 194.573 130.907C194.371 130.959 194.156 130.896 194.014 130.743ZM197.559 125.671C197.782 125.894 198.143 125.894 198.366 125.671L199.197 124.841L199.106 124.637C198.97 124.331 198.835 124.027 198.697 123.722L197.554 124.865C197.448 124.973 197.389 125.119 197.39 125.27C197.391 125.422 197.453 125.567 197.561 125.673L197.559 125.671ZM194.572 120.764C194.37 120.816 194.155 120.753 194.013 120.6L192.813 119.4C192.604 119.175 192.61 118.825 192.827 118.607C193.045 118.39 193.395 118.384 193.62 118.593L194.82 119.793C194.973 119.935 195.036 120.15 194.984 120.352C194.933 120.554 194.774 120.713 194.572 120.764ZM211.248 149.3C211.061 149.485 211.025 149.774 211.163 149.999C211.3 150.223 211.574 150.323 211.824 150.24C211.655 149.928 211.477 149.6 211.292 149.255L211.248 149.3ZM197.118 172.807L198.318 171.607L198.32 171.601C198.444 171.484 198.615 171.43 198.784 171.454C198.487 172.187 198.215 172.896 197.966 173.575L197.925 173.615C197.701 173.835 197.342 173.834 197.12 173.612C196.898 173.39 196.897 173.03 197.118 172.807ZM212.008 152.247L210.808 153.447C210.585 153.67 210.585 154.032 210.808 154.255C211.031 154.478 211.393 154.478 211.616 154.255L212.816 153.055C213.025 152.83 213.019 152.48 212.802 152.262C212.584 152.045 212.234 152.039 212.009 152.248L212.008 152.247ZM198.758 128.741C198.982 128.519 199.342 128.519 199.566 128.741L199.567 128.739C199.674 128.846 199.734 128.992 199.734 129.144C199.734 129.296 199.673 129.441 199.565 129.548L198.365 130.748C198.14 130.957 197.79 130.951 197.572 130.734C197.355 130.516 197.349 130.166 197.558 129.941L198.758 128.741ZM194.014 178.685C194.238 178.905 194.597 178.904 194.819 178.682C195.041 178.46 195.042 178.1 194.821 177.877L193.621 176.677C193.396 176.468 193.046 176.474 192.828 176.691C192.611 176.909 192.605 177.259 192.814 177.484L194.014 178.685ZM194.061 152.246L195.261 153.446V153.445C195.482 153.668 195.481 154.028 195.259 154.25C195.037 154.472 194.678 154.473 194.454 154.253L193.254 153.053C193.045 152.828 193.051 152.478 193.268 152.26C193.486 152.043 193.836 152.037 194.061 152.246ZM194.454 173.613C194.678 173.833 195.037 173.832 195.259 173.61C195.481 173.388 195.482 173.028 195.261 172.805L194.061 171.605C193.836 171.396 193.486 171.402 193.268 171.619C193.051 171.837 193.045 172.187 193.254 172.412L194.454 173.613ZM193.254 114.334C193.032 114.111 193.032 113.75 193.254 113.527L193.256 113.525C193.479 113.305 193.839 113.306 194.061 113.527L194.878 114.344C194.895 114.388 194.914 114.431 194.934 114.474L194.934 114.474C194.957 114.525 194.98 114.577 195 114.632C195.047 114.761 195.096 114.891 195.146 115.023L195.146 115.023C195.201 115.169 195.256 115.315 195.309 115.461C195.295 115.487 195.279 115.511 195.261 115.534C195.038 115.756 194.677 115.756 194.454 115.534L193.254 114.334ZM192.814 168.268L194.014 169.468C194.237 169.691 194.598 169.691 194.821 169.468C195.044 169.245 195.044 168.884 194.821 168.661L193.621 167.461C193.477 167.315 193.266 167.258 193.068 167.311C192.87 167.363 192.715 167.518 192.663 167.716C192.611 167.914 192.668 168.125 192.814 168.269V168.268ZM194.061 132.885L195.261 134.085V134.084C195.482 134.307 195.481 134.667 195.259 134.889C195.037 135.111 194.678 135.112 194.454 134.892L193.254 133.692C193.045 133.467 193.051 133.117 193.268 132.899C193.486 132.682 193.836 132.676 194.061 132.885ZM207.703 145.035C207.928 145.244 208.278 145.238 208.496 145.021C208.713 144.803 208.719 144.453 208.51 144.228L207.31 143.028C207.087 142.805 206.725 142.805 206.502 143.028C206.279 143.251 206.279 143.613 206.502 143.836L207.703 145.035ZM177.594 113.525L178.793 114.724C179.014 114.947 179.013 115.307 178.791 115.529C178.569 115.751 178.21 115.752 177.986 115.532L176.786 114.332C176.566 114.108 176.567 113.749 176.789 113.527C177.011 113.305 177.371 113.304 177.594 113.525ZM206.503 148.907L207.703 150.107C207.928 150.316 208.278 150.31 208.496 150.093C208.713 149.875 208.719 149.525 208.51 149.3L207.31 148.1C207.087 147.879 206.727 147.88 206.505 148.102C206.283 148.324 206.282 148.683 206.502 148.907H206.503ZM177.594 132.885L178.793 134.084C179.014 134.307 179.013 134.667 178.791 134.889C178.569 135.111 178.21 135.112 177.986 134.892L176.786 133.692C176.566 133.468 176.567 133.109 176.789 132.887C177.011 132.665 177.371 132.664 177.594 132.885ZM178.794 172.805L177.594 171.605C177.534 171.547 177.461 171.503 177.382 171.476C177.85 171.95 178.331 172.411 178.827 172.854C178.822 172.847 178.818 172.84 178.814 172.832C178.809 172.822 178.804 172.811 178.795 172.801L178.794 172.805ZM178.354 169.467C178.131 169.69 177.77 169.69 177.547 169.467L176.347 168.268C176.201 168.124 176.144 167.913 176.196 167.715C176.248 167.517 176.403 167.362 176.601 167.31C176.799 167.257 177.01 167.314 177.154 167.46L178.354 168.66C178.577 168.883 178.577 169.244 178.354 169.467ZM176.347 138.767L177.547 139.967C177.689 140.12 177.904 140.183 178.106 140.131C178.308 140.08 178.467 139.921 178.518 139.719C178.57 139.517 178.507 139.302 178.354 139.16L177.154 137.96C176.931 137.737 176.57 137.737 176.347 137.96C176.124 138.183 176.124 138.544 176.347 138.767ZM177.547 145.039L176.347 143.839V143.84C176.126 143.617 176.127 143.257 176.349 143.035C176.571 142.813 176.93 142.812 177.154 143.032L178.354 144.232C178.507 144.374 178.57 144.589 178.518 144.791C178.467 144.993 178.308 145.152 178.106 145.203C177.904 145.255 177.689 145.192 177.547 145.039ZM178.792 153.446L177.593 152.247C177.37 152.026 177.01 152.027 176.788 152.249C176.566 152.471 176.565 152.83 176.785 153.054L177.985 154.254C178.129 154.4 178.34 154.457 178.538 154.404C178.736 154.352 178.89 154.197 178.943 153.999C178.995 153.801 178.938 153.59 178.792 153.446ZM177.547 150.109L176.347 148.909C176.124 148.686 176.124 148.325 176.347 148.102C176.57 147.879 176.931 147.879 177.154 148.102L178.354 149.302C178.507 149.444 178.57 149.659 178.518 149.861C178.467 150.063 178.308 150.222 178.106 150.273C177.904 150.325 177.689 150.262 177.547 150.109ZM199.565 157.32C199.342 157.097 198.98 157.097 198.757 157.32L197.557 158.52C197.348 158.745 197.354 159.095 197.571 159.313C197.789 159.53 198.139 159.536 198.364 159.327L199.564 158.127C199.673 158.02 199.734 157.874 199.734 157.722C199.735 157.57 199.675 157.424 199.567 157.316L199.565 157.32ZM198.757 148.102C198.981 147.88 199.341 147.88 199.565 148.102L199.567 148.101C199.674 148.208 199.734 148.354 199.733 148.506C199.732 148.657 199.672 148.802 199.564 148.909L198.364 150.109C198.139 150.318 197.789 150.312 197.571 150.095C197.354 149.877 197.348 149.527 197.557 149.302L198.757 148.102ZM198.757 167.462L197.557 168.662C197.348 168.887 197.354 169.237 197.571 169.455C197.789 169.672 198.139 169.678 198.364 169.469L199.564 168.269C199.787 168.046 199.787 167.684 199.564 167.461C199.341 167.238 198.979 167.238 198.756 167.461L198.757 167.462ZM198.757 137.962C198.98 137.739 199.342 137.739 199.565 137.962L199.567 137.956C199.675 138.064 199.736 138.21 199.735 138.363C199.735 138.516 199.673 138.662 199.564 138.769L198.364 139.969C198.139 140.178 197.789 140.172 197.571 139.955C197.354 139.737 197.348 139.387 197.557 139.162L198.757 137.962ZM199.565 143.032C199.341 142.811 198.981 142.811 198.757 143.032L197.557 144.232C197.348 144.457 197.354 144.807 197.571 145.025C197.789 145.242 198.139 145.248 198.364 145.039L199.564 143.839C199.672 143.732 199.734 143.586 199.734 143.434C199.735 143.281 199.675 143.135 199.567 143.027L199.565 143.032ZM199.125 133.696L197.925 134.896V134.897C197.701 135.117 197.342 135.116 197.12 134.894C196.898 134.672 196.897 134.312 197.118 134.089L198.318 132.889C198.543 132.68 198.893 132.686 199.111 132.903C199.328 133.121 199.334 133.471 199.125 133.696ZM197.118 154.256C197.342 154.477 197.701 154.477 197.925 154.256L199.125 153.056C199.334 152.831 199.328 152.481 199.111 152.263C198.893 152.046 198.543 152.04 198.318 152.249L197.118 153.449C196.9 153.672 196.901 154.029 197.12 154.251L197.118 154.256ZM208.948 154.253C208.726 154.475 208.367 154.476 208.143 154.256L206.943 153.055C206.734 152.83 206.74 152.48 206.957 152.262C207.175 152.045 207.525 152.039 207.75 152.248L208.95 153.448C209.171 153.671 209.17 154.031 208.948 154.253ZM176.343 129.55L177.543 130.75C177.685 130.903 177.9 130.966 178.102 130.914C178.304 130.863 178.463 130.704 178.514 130.502C178.566 130.3 178.503 130.085 178.35 129.943L177.15 128.743C176.927 128.52 176.566 128.52 176.343 128.743C176.12 128.966 176.12 129.327 176.343 129.55ZM198.753 162.391C198.977 162.17 199.337 162.17 199.561 162.391L199.567 162.387C199.674 162.495 199.733 162.642 199.732 162.794C199.73 162.946 199.669 163.091 199.56 163.198L198.36 164.398C198.135 164.607 197.785 164.601 197.567 164.384C197.35 164.166 197.344 163.816 197.553 163.591L198.753 162.391Z" fill="#EED095"/>
<path d="M337.109 189.186H273.47C272.296 189.166 271.213 188.545 270.603 187.542C269.993 186.538 269.941 185.292 270.464 184.24L298.434 126.64C298.989 125.483 300.157 124.745 301.44 124.74H365.08C366.254 124.76 367.336 125.381 367.946 126.384C368.556 127.387 368.609 128.634 368.086 129.685L340.115 187.285C339.56 188.442 338.392 189.18 337.109 189.186Z" fill="#013BFF"/>
<path d="M216.073 185.423H281.703C282.724 185.423 283.551 186.25 283.551 187.271C283.552 187.762 283.358 188.233 283.011 188.58C282.664 188.928 282.194 189.123 281.703 189.123H216.073C215.582 189.123 215.112 188.928 214.765 188.58C214.418 188.233 214.224 187.762 214.225 187.271C214.225 186.25 215.052 185.423 216.073 185.423Z" fill="#013BFF"/>
<path d="M321.791 165.873C326.713 165.873 330.703 161.883 330.703 156.961C330.703 152.039 326.713 148.049 321.791 148.049C316.869 148.049 312.879 152.039 312.879 156.961C312.879 161.883 316.869 165.873 321.791 165.873Z" fill="#C6DDFF"/>
<path d="M201.383 189.118H408.703C412.72 189.118 415.977 192.375 415.977 196.392C415.977 200.409 412.72 203.666 408.703 203.666H201.383C197.366 203.666 194.109 200.409 194.109 196.392C194.109 192.375 197.366 189.118 201.383 189.118Z" fill="#192684"/>
<path d="M209.251 196.392C211.998 196.392 214.225 198.619 214.225 201.366V359.116C214.226 360.436 213.702 361.701 212.769 362.634C211.836 363.568 210.571 364.092 209.251 364.092C207.931 364.092 206.666 363.568 205.733 362.634C204.8 361.701 204.276 360.436 204.277 359.116V201.366C204.277 198.619 206.504 196.392 209.251 196.392Z" fill="#192684"/>
<path d="M395.888 196.392C398.635 196.392 400.862 198.619 400.862 201.366V359.116C400.863 360.436 400.339 361.701 399.406 362.634C398.473 363.568 397.208 364.092 395.888 364.092C394.568 364.092 393.303 363.568 392.37 362.634C391.437 361.701 390.913 360.436 390.914 359.116V201.366C390.914 198.619 393.141 196.392 395.888 196.392Z" fill="#192684"/>
<path d="M229.769 78.259C230.485 78.259 231.066 77.6783 231.066 76.962C231.066 76.2457 230.485 75.665 229.769 75.665C229.053 75.665 228.472 76.2457 228.472 76.962C228.472 77.6783 229.053 78.259 229.769 78.259Z" fill="#231F20"/>
<path d="M219.605 73.327C220.321 73.327 220.902 72.7463 220.902 72.03C220.902 71.3137 220.321 70.733 219.605 70.733C218.889 70.733 218.308 71.3137 218.308 72.03C218.308 72.7463 218.889 73.327 219.605 73.327Z" fill="#231F20"/>
<path fill-rule="evenodd" clip-rule="evenodd" d="M227.761 73.7883C226.095 74.9473 225.292 76.9956 225.725 78.978C226.32 81.6822 228.991 83.3952 231.697 82.808C233.679 82.3749 235.206 80.7902 235.564 78.7929C235.923 76.7955 235.043 74.7789 233.335 73.6835C231.626 72.588 229.427 72.6294 227.761 73.7883ZM231.603 82.3821C229.133 82.9209 226.693 81.3553 226.154 78.885H226.153C225.616 76.4132 227.183 73.9735 229.654 73.434C232.125 72.8964 234.563 74.4631 235.102 76.9336C235.64 79.4042 234.074 81.8434 231.603 82.3821Z" fill="white"/>
<path fill-rule="evenodd" clip-rule="evenodd" d="M215.101 68.0621C213.236 69.3592 212.336 71.6518 212.821 73.871C213.486 76.899 216.477 78.8173 219.506 78.159C221.725 77.6743 223.434 75.9005 223.835 73.6647C224.237 71.429 223.252 69.1716 221.34 67.9452C219.428 66.7188 216.965 66.7649 215.101 68.0621ZM217.402 77.7221C215.362 77.3557 213.743 75.7962 213.301 73.771V73.767C212.703 71.0039 214.453 68.2776 217.214 67.671C219.239 67.2285 221.331 68.0495 222.515 69.7512C223.699 71.4529 223.741 73.7002 222.622 75.445C221.503 77.1898 219.442 78.0886 217.402 77.7221Z" fill="white"/>
<path d="M223.376 74.326L223.602 73.8389L226.608 75.2341L226.382 75.7212L223.376 74.326Z" fill="white"/>
<path d="M222.997 81.785L223.061 81.769C224.273 81.447 224.821 76.869 224.961 75.469C224.978 75.3698 224.938 75.2693 224.858 75.2086C224.778 75.148 224.67 75.1373 224.579 75.181C224.489 75.2246 224.43 75.3153 224.427 75.416C224.16 78.1 223.509 81.092 222.927 81.248C222.51 81.353 221.772 81.235 220.567 80.027L220.505 79.966C220.399 79.8627 220.229 79.865 220.126 79.971C220.023 80.077 220.025 80.2467 220.131 80.35L220.187 80.406C221.266 81.494 222.212 81.957 222.997 81.785Z" fill="#F97700"/>
<path d="M220.963 86.601C221.229 86.5441 221.489 86.4645 221.741 86.363C221.84 86.3232 221.919 86.2457 221.96 86.1475C222.002 86.0493 222.002 85.9386 221.962 85.84C221.876 85.6367 221.644 85.5384 221.438 85.618C221.32 85.667 218.527 86.762 217.481 84.403C217.391 84.1997 217.154 84.1077 216.95 84.1975C216.747 84.2872 216.655 84.5247 216.745 84.728C217.478 86.3265 219.286 87.1295 220.963 86.601Z" fill="#F97700"/>
<path d="M223.377 68.196C223.232 68.196 223.107 68.0974 223.072 67.957C222.914 67.3381 222.507 66.8125 221.947 66.5052C221.387 66.198 220.725 66.1367 220.118 66.336C220.036 66.3559 219.95 66.342 219.879 66.2973C219.808 66.2527 219.758 66.1811 219.741 66.099C219.702 65.93 219.808 65.7617 219.977 65.723C220.745 65.4882 221.576 65.5782 222.276 65.9721C222.977 66.366 223.485 67.0294 223.683 67.808C223.724 67.9764 223.62 68.146 223.452 68.187C223.427 68.1929 223.402 68.1959 223.377 68.196Z" fill="#231F20"/>
<path d="M233.099 72.985C232.954 72.9851 232.829 72.8864 232.794 72.746C232.638 72.1262 232.231 71.5993 231.67 71.2918C231.11 70.9843 230.447 70.9239 229.84 71.125C229.675 71.1533 229.517 71.048 229.48 70.8852C229.442 70.7223 229.538 70.5585 229.699 70.512C230.467 70.2778 231.298 70.3681 231.998 70.7619C232.698 71.1557 233.206 71.8188 233.405 72.597C233.428 72.6905 233.407 72.7895 233.347 72.8651C233.288 72.9408 233.196 72.9847 233.1 72.984L233.099 72.985Z" fill="#231F20"/>
</svg>
