<svg width="48" height="55" viewBox="0 0 48 55" fill="none" xmlns="http://www.w3.org/2000/svg">
<path fill-rule="evenodd" clip-rule="evenodd" d="M26.4 25.4H21.6C18.949 25.4 16.8 27.5491 16.8 30.2V49.4C16.8 52.051 18.949 54.2 21.6 54.2H26.4C29.051 54.2 31.2 52.051 31.2 49.4V30.2C31.2 27.5491 29.051 25.4 26.4 25.4ZM21.6 49.4V30.2H26.4V49.4H21.6Z" fill="#313645"/>
<path fill-rule="evenodd" clip-rule="evenodd" d="M9.6 32.6H4.8C2.14903 32.6 0 34.749 0 37.4V49.4C0 52.0509 2.14903 54.2 4.8 54.2H9.6C12.251 54.2 14.4 52.0509 14.4 49.4V37.4C14.4 34.749 12.251 32.6 9.6 32.6ZM4.8 49.4V37.4H9.6V49.4H4.8Z" fill="#313645"/>
<path d="M43.2 47C43.2 45.6745 44.2745 44.6 45.6 44.6C46.9255 44.6 48 45.6745 48 47V49.4C48 52.0509 45.851 54.2 43.2 54.2H38.4C35.749 54.2 33.6 52.0509 33.6 49.4V23C33.6 20.349 35.749 18.2 38.4 18.2H43.2C45.851 18.2 48 20.349 48 23V37.4C48 38.7254 46.9255 39.8 45.6 39.8C44.2745 39.8 43.2 38.7254 43.2 37.4V23H38.4V49.4H43.2V47Z" fill="#313645"/>
<path d="M3.59027 29.9868C2.41893 30.6072 0.966454 30.1606 0.346062 28.9892C-0.27433 27.8179 0.172295 26.3654 1.34363 25.745L42.0973 4.15997C43.2687 3.53957 44.7211 3.9862 45.3415 5.15753C45.9619 6.32886 45.5153 7.78134 44.344 8.40174L3.59027 29.9868Z" fill="#0080EF"/>
<path d="M40.24 7.7705L35.2311 6.15922C33.9693 5.75332 33.2754 4.40138 33.6813 3.13957C34.0872 1.87777 35.4392 1.18392 36.701 1.58982L44.0306 3.94763C45.3064 4.35803 45.9989 5.73373 45.5686 7.00294L43.1333 14.1859C42.7077 15.4412 41.3451 16.1139 40.0898 15.6883C38.8345 15.2627 38.1619 13.9 38.5874 12.6447L40.24 7.7705Z" fill="#0080EF"/>
</svg>
