<svg width="433" height="383" viewBox="0 0 433 383" fill="none" xmlns="http://www.w3.org/2000/svg">
<path opacity="0.159552" d="M245.738 3.35441C195.322 -3.1562 148.125 -1.55574 116.272 20.4926C84.8734 42.342 68.5687 84.3104 45.5422 126.757L44.8424 128.043C21.5017 171.005 -9.02325 214.448 2.52182 242.88C14.0669 271.313 67.6602 284.872 110.3 308.941C152.939 333.01 184.567 367.51 226.908 378.794C269.307 390.157 322.499 378.246 362.075 346.091C401.651 313.935 427.692 261.477 432.253 206.883C436.872 152.368 419.954 95.6369 384.706 60.0003C349.595 24.3854 296.154 9.86502 245.738 3.35441Z" fill="#40BFFD"/>
<rect width="21.667" height="54.397" transform="matrix(-0.999715 -0.0238913 -0.0238913 0.999715 308.156 205.406)" fill="#3478F6"/>
<rect width="21.669" height="102.151" transform="matrix(-0.999715 -0.0238913 -0.0238913 0.999715 260.486 156.501)" fill="#98BEF7"/>
<rect width="21.667" height="91.588" transform="matrix(-0.999715 -0.0238913 -0.0238913 0.999715 211.42 165.892)" fill="#3478F6"/>
<rect width="21.668" height="143.299" transform="matrix(-0.999715 -0.0238913 -0.0238913 0.999715 163.844 113.032)" fill="#98BEF7"/>
<path d="M126.939 270.466L320.805 275.099L325.298 87.1093L322.34 87.0392L317.916 272.069L127.006 267.508L126.939 270.466Z" fill="#98BEF7"/>
<path d="M156.618 93.4938L166.399 81.6461L151.736 79.5018L156.618 93.4938Z" fill="#98BEF7"/>
<path d="M298.493 167.043C298.781 166.928 299.021 166.719 299.175 166.451C299.361 166.132 299.411 165.751 299.316 165.394C299.221 165.037 298.988 164.733 298.668 164.548L160.432 84.4277C159.767 84.0413 158.914 84.2675 158.528 84.9329C158.141 85.5983 158.368 86.4509 159.033 86.8373L297.27 166.958C297.643 167.175 298.095 167.206 298.493 167.043Z" fill="#98BEF7"/>
<path d="M116.614 346.055C116.614 346.055 116.959 366.585 120.753 367.755C124.547 368.925 155.108 369.621 160.941 364.489C166.774 359.357 131.778 353.523 128.979 346.058C126.18 338.593 117.547 340.222 116.614 346.055Z" fill="#192684"/>
<path d="M65.055 349.554C65.055 349.554 64.588 366.119 66.921 368.454C69.254 370.789 106.349 372.886 108.215 370.087C110.081 367.288 81.152 355.156 79.986 351.423C78.82 347.69 65.055 349.554 65.055 349.554Z" fill="#192684"/>
<path d="M142.002 141.946C142.002 141.946 149.251 147.586 145.86 193.171C142.469 238.756 127.537 321.063 131.503 346.388C131.037 347.021 115.639 349.237 115.639 349.237C115.639 349.237 69.912 164.364 119.139 140.305C132.665 134.611 142.002 141.946 142.002 141.946Z" fill="#FDBD28"/>
<path d="M99.55 259.331C99.55 259.331 118.82 220.526 120.204 182.157C120.231 181.975 99.386 214.388 98.452 229.267C97.9635 239.301 98.3308 249.359 99.55 259.331Z" fill="#FDA428"/>
<path d="M65.585 168.536C62.185 197.464 50.013 312.105 65.246 356.201C65.946 356.518 83.119 354.619 83.119 354.619C83.119 354.619 94.409 256.167 108.173 221.662C118.673 199.502 137.102 137.456 93.709 142.204C82.765 143.52 75.191 150.192 70.843 155.397C67.8706 159.184 66.0459 163.744 65.585 168.536Z" fill="#FDBD28"/>
<path d="M0 180.018C0 180.018 37.789 150.778 55.054 147.356C55.054 147.978 63.302 176.907 66.254 178.307C69.206 179.707 26.441 210.015 24.886 213.437C24.889 213.904 0 192.927 0 180.018Z" fill="#3478F6"/>
<path d="M65.635 83.2758C65.635 83.2758 27.063 105.828 24.885 148.134C24.73 152.488 19.597 152.177 21.619 164.934C21.775 165.09 29.085 153.734 31.884 155.602C34.683 157.47 42.149 167.581 44.484 164.936C46.819 162.291 41.529 156.536 39.974 152.647C38.419 148.758 52.574 117.185 74.036 105.987C86.702 100.58 88.032 69.8998 65.635 83.2758Z" fill="#FAC896"/>
<path d="M56.053 90.9748C55.914 97.3338 58.073 108.675 63.795 113.236C63.995 113.043 69.837 107.645 72.052 107.087C72.458 106.852 70.725 89.1088 60.703 87.1708C59.565 86.9614 58.3925 87.2631 57.4969 87.9958C56.6013 88.7284 56.0733 89.8179 56.053 90.9748Z" fill="#F39C55"/>
<path d="M152.976 97.1108C158.384 100.066 172.113 104.599 192.239 90.7468C195.505 86.3918 186.484 79.8588 202.193 80.7928C207.793 81.8808 211.681 83.9028 209.348 86.8578C207.015 89.8128 179.019 133.207 155.689 130.719C132.359 128.231 133.758 114.719 133.447 112.219C133.188 110.138 131.633 97.6938 142.373 95.4038C145.998 94.6891 149.759 95.2946 152.976 97.1108Z" fill="#FAC896"/>
<path d="M156.933 96.6528C156.933 96.6528 141.224 109.612 142.702 114.914C144.18 120.216 157.096 102.96 165.18 100.234C165.25 100.235 157.477 100.776 156.933 96.6528Z" fill="#F39C55"/>
<path d="M133.409 69.8108C133.409 69.8108 158.799 92.2968 159.266 95.8738C159.733 99.4508 145.423 109.25 144.49 117.338C143.557 125.426 128.548 79.9868 133.409 69.8108Z" fill="#0C9E72"/>
<path fill-rule="evenodd" clip-rule="evenodd" d="M134.866 78.7938C133.563 78.7931 132.508 77.7372 132.508 76.4348C132.508 75.132 133.564 74.0758 134.867 74.0758C136.17 74.0758 137.226 75.132 137.226 76.4348C137.224 77.7375 136.168 78.7929 134.866 78.7938ZM149.488 87.1068C148.567 87.1117 147.729 86.5781 147.343 85.742C146.958 84.906 147.097 83.9218 147.698 83.2248L147.844 83.0528L148.007 83.2088C149.049 84.2088 150.08 85.2088 151.068 86.1858L151.228 86.3438L151.06 86.4958C150.631 86.8888 150.07 87.108 149.488 87.1108V87.1068ZM135.985 95.6208C135.75 95.6179 135.517 95.5795 135.294 95.5068L135.178 95.4708L135.15 95.3538C134.85 94.1288 134.569 92.9148 134.313 91.7458L134.287 91.6268L134.375 91.5438C135.147 90.8208 136.305 90.7002 137.209 91.2489C138.113 91.7976 138.541 92.8812 138.256 93.8995C137.971 94.9178 137.042 95.6215 135.985 95.6208ZM148.251 101.574C148.251 102.877 149.307 103.933 150.61 103.933C151.912 103.932 152.968 102.876 152.969 101.574C152.969 100.271 151.913 99.2148 150.61 99.2148C149.307 99.2148 148.251 100.271 148.251 101.574ZM148.678 101.573C148.678 100.506 149.543 99.6404 150.61 99.6398C151.678 99.6404 152.543 100.506 152.544 101.574C152.543 102.641 151.678 103.506 150.611 103.506C149.543 103.506 148.678 102.64 148.678 101.573ZM135.985 95.1948C135.833 95.1931 135.682 95.1719 135.535 95.1318C135.257 93.9948 134.996 92.8668 134.756 91.7758C135.412 91.2297 136.349 91.179 137.061 91.6512C137.773 92.1233 138.09 93.0064 137.842 93.8234C137.594 94.6405 136.839 95.198 135.985 95.1948ZM147.886 83.6851L147.888 83.6828H147.884L147.886 83.6851ZM147.558 84.7478C147.558 84.3686 147.672 83.9982 147.886 83.6851C148.808 84.5703 149.719 85.4546 150.601 86.3218C150.278 86.5538 149.89 86.6793 149.492 86.6808C148.424 86.6803 147.559 85.8153 147.558 84.7478ZM133.079 75.694C133.379 74.9713 134.085 74.5004 134.867 74.5008H134.865C135.933 74.5014 136.799 75.3668 136.8 76.4348C136.8 77.2171 136.329 77.9224 135.606 78.2217C134.883 78.521 134.051 78.3553 133.498 77.802C132.945 77.2487 132.78 76.4167 133.079 75.694Z" fill="white"/>
<path d="M133.221 70.1898C133.221 70.1898 151.148 96.5948 151.163 106.266C150.963 106.494 146.303 111.147 145.215 114.704C144.127 118.261 129.884 75.4568 133.221 70.1898Z" fill="#037A4A"/>
<path d="M129.372 42.8488L131.834 43.4764C133.898 44.0016 135.669 45.3254 136.756 47.1564C137.844 48.9874 138.16 51.1755 137.634 53.2392L132.885 71.8672C132.359 73.9304 131.035 75.7001 129.205 76.7871C127.374 77.8741 125.186 78.1894 123.123 77.6634L120.658 77.0351C116.362 75.9399 113.767 71.5693 114.862 67.273L119.61 48.645C120.705 44.3487 125.076 41.7536 129.372 42.8488Z" fill="#FAC896"/>
<path d="M135.565 61.3548C135.565 61.3548 138.065 52.5998 137.817 52.2488C137.569 51.8978 121.196 46.3288 120.343 46.7898C119.49 47.2508 127.841 60.5468 135.565 61.3548Z" fill="#F39C55"/>
<path d="M135.105 54.8446C143.989 53.2843 149.583 42.8625 147.599 31.5668C145.615 20.2712 136.805 12.3792 127.921 13.9396C119.037 15.4999 113.443 25.9217 115.427 37.2174C117.411 48.513 126.221 56.405 135.105 54.8446Z" fill="#FAC896"/>
<path d="M117.563 48.8638C120.945 48.8638 123.687 45.626 123.687 41.6318C123.687 37.6377 120.945 34.3998 117.563 34.3998C114.181 34.3998 111.439 37.6377 111.439 41.6318C111.439 45.626 114.181 48.8638 117.563 48.8638Z" fill="#FAC896"/>
<path d="M125.088 25.3008C125.088 25.3008 143.988 26.1178 146.201 22.0348C148.414 17.9518 155.183 18.3018 155.301 15.1528C155.419 12.0038 154.834 8.61982 148.652 7.80382C142.47 6.98782 142.936 -2.11218 133.252 0.454819C123.568 3.02182 117.738 -1.06218 112.838 4.18682C107.938 9.43582 107.238 12.0028 106.189 15.8518C105.14 19.7008 102.106 20.4018 100.707 23.2008C99.308 25.9998 98.7 34.7308 105.139 38.9488C111.578 43.1668 105.606 55.1638 119.254 52.0138C120.537 51.3138 120.304 49.3308 117.563 47.8138C114.822 46.2968 108.779 36.5348 115.416 37.2138C122.053 37.8928 121.651 40.7898 122.404 42.6778C123.157 44.5658 125.087 44.3108 124.853 42.9108C124.619 41.5108 123.453 39.8778 124.62 36.6108C125.787 33.3438 125.088 25.3008 125.088 25.3008Z" fill="#F97700"/>
<path d="M116.265 61.7948C116.265 61.7948 127.62 82.0088 133.414 69.8108C133.422 69.7768 152.268 116.439 148.536 159.988C148.224 160.144 87.878 180.518 64.081 164.81C64.392 165.587 78.081 111.272 83.215 108.317C83.682 108.628 75.127 109.267 72.015 112.217C68.903 115.167 54.751 90.1228 55.062 86.8558C55.373 83.5888 80.41 62.7108 116.265 61.7948Z" fill="#0C9E72"/>
<path fill-rule="evenodd" clip-rule="evenodd" d="M109.64 71.4798C108.337 71.4793 107.282 70.4229 107.282 69.1202C107.282 67.8175 108.339 66.7617 109.641 66.7618C110.944 66.762 112 67.8181 112 69.1208C111.998 70.4234 110.943 71.4787 109.64 71.4798ZM95.513 79.9938C94.2104 79.9922 93.1551 78.9364 93.154 77.6338C93.1545 77.6004 93.1572 77.567 93.162 77.5338C93.162 77.481 93.159 77.4482 93.1567 77.4229V77.4228V77.4228C93.1552 77.4069 93.154 77.3939 93.154 77.3808C93.154 76.0777 94.2104 75.0213 95.5135 75.0213C96.8166 75.0213 97.873 76.0777 97.873 77.3808C97.8723 77.4143 97.8693 77.4478 97.864 77.4808L97.8662 77.5141L97.869 77.5528L97.869 77.5529C97.8714 77.5848 97.873 77.6056 97.873 77.6268C97.8741 78.2537 97.626 78.8553 97.1834 79.2993C96.7407 79.7432 96.1399 79.993 95.513 79.9938ZM124.701 79.9938C123.398 79.9938 122.342 78.9379 122.342 77.6352C122.342 76.3325 123.398 75.2762 124.7 75.2758C126.003 75.2755 127.059 76.3311 127.06 77.6338C127.058 78.9362 126.003 79.9916 124.701 79.9938ZM108.405 85.9462C108.405 87.2489 109.46 88.3053 110.763 88.3058H110.765C112.067 88.3042 113.122 87.2488 113.123 85.9468C113.123 84.6441 112.067 83.588 110.764 83.5878C109.462 83.5877 108.405 84.6435 108.405 85.9462ZM136.966 85.9468C136.968 87.2494 138.023 88.3047 139.326 88.3058C139.365 88.3051 139.404 88.3018 139.442 88.2958L139.718 88.2888L139.641 88.0238C139.23 86.6305 138.83 85.3038 138.441 84.0438L138.361 83.7858L138.128 83.9228C137.407 84.342 136.965 85.1132 136.966 85.9468ZM63.7735 96.7244C64.1385 97.606 64.9988 98.1808 65.953 98.1808C67.2548 98.1792 68.3098 97.1246 68.312 95.8228C68.3124 94.8686 67.7379 94.0081 66.8564 93.6427C65.975 93.2773 64.9602 93.4788 64.2853 94.1534C63.6104 94.828 63.4084 95.8427 63.7735 96.7244ZM94.29 98.1728C94.3214 98.178 94.3532 98.1807 94.385 98.1808L94.38 98.1808H94.3863L94.385 98.1808C95.2259 98.179 96.0024 97.7298 96.423 97.0013C96.8443 96.2715 96.8443 95.3722 96.423 94.6423C96.0016 93.9125 95.2228 93.4628 94.38 93.4628C94.3665 93.4628 94.3532 93.4643 94.3371 93.466C94.3126 93.4686 94.2817 93.4718 94.234 93.4718C94.2009 93.4666 94.1675 93.4636 94.134 93.4628C93.2912 93.4628 92.5124 93.9125 92.091 94.6423C91.6696 95.3722 91.6696 96.2715 92.091 97.0013C92.5124 97.7312 93.2912 98.1808 94.134 98.1808C94.1675 98.1809 94.2009 98.1782 94.234 98.1728H94.29ZM121.148 96.9744C121.514 97.856 122.374 98.4308 123.328 98.4308C124.63 98.4292 125.685 97.3746 125.687 96.0728C125.687 95.1186 125.113 94.2581 124.231 93.8927C123.35 93.5273 122.335 93.7288 121.66 94.4034C120.985 95.078 120.783 96.0927 121.148 96.9744ZM78.219 104.135C78.219 105.438 79.2752 106.494 80.578 106.494C81.8801 106.492 82.9353 105.437 82.937 104.135C82.937 102.832 81.8808 101.776 80.578 101.776C79.2752 101.776 78.219 102.832 78.219 104.135ZM135.774 105.288C136.139 106.169 136.999 106.744 137.953 106.744C139.255 106.742 140.31 105.687 140.312 104.385C140.312 103.431 139.737 102.571 138.856 102.205C137.974 101.84 136.96 102.042 136.285 102.717C135.61 103.391 135.408 104.406 135.774 105.288ZM93.154 112.649C93.1551 113.951 94.2106 115.007 95.513 115.008V115.011C96.1396 115.01 96.7403 114.761 97.1829 114.317C97.6256 113.874 97.8738 113.272 97.873 112.646C97.873 112.623 97.8713 112.601 97.8689 112.568L97.8688 112.567L97.8673 112.547L97.864 112.499C97.8694 112.466 97.8724 112.432 97.873 112.399C97.873 111.096 96.8166 110.039 95.5135 110.039C94.2104 110.039 93.154 111.096 93.154 112.399L93.1542 112.407L93.1549 112.421L93.1567 112.441V112.441C93.159 112.466 93.162 112.498 93.162 112.549C93.1573 112.582 93.1546 112.615 93.154 112.649ZM122.52 113.551C122.885 114.433 123.746 115.008 124.701 115.008V115.011C126.004 115.009 127.06 113.952 127.06 112.649C127.06 111.694 126.486 110.833 125.604 110.468C124.722 110.102 123.706 110.304 123.031 110.979C122.356 111.654 122.154 112.669 122.52 113.551ZM136.967 120.962C136.967 122.265 138.023 123.321 139.326 123.321C140.628 123.319 141.683 122.263 141.685 120.961C141.684 119.658 140.628 118.602 139.325 118.603C138.023 118.603 136.967 119.659 136.967 120.962ZM92.031 126.662C92.0326 127.964 93.0878 129.019 94.39 129.021C95.7543 128.895 96.8158 127.781 96.875 126.412C96.8733 125.109 95.8177 124.053 94.515 124.052C93.1512 124.179 92.0905 125.293 92.031 126.662ZM121.524 127.565C121.889 128.446 122.749 129.021 123.703 129.021C125.005 129.019 126.06 127.964 126.062 126.662C126.062 125.708 125.487 124.848 124.606 124.482C123.724 124.117 122.71 124.319 122.035 124.994C121.36 125.668 121.158 126.683 121.524 127.565ZM135.969 134.974C135.969 136.277 137.025 137.333 138.328 137.333C139.63 137.331 140.685 136.276 140.687 134.974C140.687 133.671 139.631 132.615 138.328 132.615C137.025 132.615 135.969 133.671 135.969 134.974ZM93.0146 144.307C93.3797 145.188 94.2399 145.763 95.194 145.763C96.4964 145.762 97.5519 144.706 97.553 143.404C97.553 142.45 96.9782 141.59 96.0967 141.224C95.2152 140.859 94.2006 141.061 93.5259 141.736C92.8513 142.41 92.6494 143.425 93.0146 144.307ZM122.023 143.653C122.023 144.956 123.078 146.012 124.381 146.013V146.011C125.683 146.01 126.738 144.956 126.741 143.654C126.741 142.351 125.685 141.295 124.382 141.295C123.08 141.295 122.023 142.35 122.023 143.653ZM79.023 151.717C79.0228 153.019 80.0784 154.075 81.381 154.076C82.6837 154.074 83.7393 153.019 83.741 151.716C83.7404 150.413 82.6842 149.358 81.3817 149.358C80.0791 149.358 79.0232 150.414 79.023 151.717ZM136.648 151.967C136.648 153.269 137.703 154.325 139.006 154.326C140.309 154.324 141.364 153.269 141.366 151.966C141.365 150.663 140.309 149.608 139.007 149.608C137.704 149.608 136.648 150.664 136.648 151.967ZM92.835 156.51C92.8352 157.813 93.8913 158.869 95.194 158.869C96.4965 158.867 97.5519 157.811 97.553 156.509C97.5524 155.206 96.496 154.15 95.1933 154.151C93.8906 154.151 92.8348 155.207 92.835 156.51ZM122.023 156.76C122.023 158.062 123.078 159.118 124.381 159.119C125.684 159.117 126.739 158.062 126.741 156.759C126.74 155.456 125.684 154.401 124.382 154.401C123.079 154.401 122.023 155.457 122.023 156.76ZM81.381 167.181C80.0783 167.18 79.0226 166.124 79.023 164.821C79.0234 163.518 80.0796 162.463 81.3823 162.463C82.685 162.463 83.741 163.519 83.741 164.822C83.7393 166.124 82.6835 167.18 81.381 167.181ZM110.444 167.431C109.141 167.431 108.085 166.375 108.085 165.072C108.085 163.769 109.141 162.713 110.444 162.713C111.747 162.713 112.803 163.769 112.803 165.072C112.802 166.374 111.746 167.43 110.444 167.431ZM93.169 170.811L93.234 170.919L93.359 170.911C94.59 170.875 95.863 170.817 97.141 170.738L97.267 170.73L97.321 170.617C97.7411 169.741 97.5812 168.697 96.9183 167.987C96.2553 167.277 95.2249 167.046 94.3222 167.405C93.4195 167.764 92.8292 168.639 92.835 169.611C92.8352 170.034 92.9506 170.449 93.169 170.811ZM93.26 169.615C93.2605 168.547 94.1261 167.681 95.194 167.681C96.2615 167.682 97.1264 168.547 97.127 169.615C97.1261 169.858 97.0782 170.099 96.986 170.324C95.799 170.396 94.621 170.451 93.476 170.486C93.3355 170.217 93.2614 169.918 93.26 169.615ZM108.511 165.071C108.511 164.003 109.377 163.138 110.444 163.138C111.511 163.139 112.376 164.004 112.377 165.072C112.376 166.139 111.511 167.004 110.443 167.004C109.376 167.003 108.511 166.138 108.511 165.071ZM79.449 164.821C79.4488 163.754 80.3137 162.888 81.381 162.888C82.4489 162.888 83.3144 163.754 83.315 164.822C83.3144 165.889 82.449 166.754 81.3817 166.754C80.3144 166.754 79.4492 165.888 79.449 164.821ZM138.381 163.253L138.255 162.846C138.362 162.808 138.472 162.777 138.584 162.754L138.684 163.169L138.381 163.253ZM124.381 154.826C123.314 154.826 122.449 155.692 122.449 156.76C122.449 157.827 123.315 158.692 124.382 158.692C125.45 158.692 126.315 157.826 126.315 156.759C126.314 155.691 125.448 154.826 124.381 154.826ZM95.194 154.576C94.1264 154.576 93.261 155.441 93.261 156.509C93.261 157.576 94.1264 158.442 95.194 158.442C96.2616 158.442 97.127 157.576 97.127 156.509C97.1259 155.442 96.2611 154.577 95.194 154.576ZM65.787 158.657C66.0912 158.796 66.4216 158.868 66.756 158.869C68.005 158.875 69.0412 157.904 69.1169 156.658C69.1926 155.411 68.2815 154.322 67.041 154.177L66.859 154.156L65.62 158.581L65.787 158.657ZM66.131 158.335C66.3316 158.406 66.543 158.443 66.756 158.443C67.7417 158.445 68.5701 157.703 68.6762 156.723C68.7824 155.743 68.1323 154.84 67.169 154.631L66.131 158.335ZM139.006 150.033C137.939 150.033 137.074 150.899 137.074 151.967C137.074 153.034 137.94 153.899 139.007 153.899C140.075 153.899 140.94 153.033 140.94 151.966C140.939 150.898 140.073 150.033 139.006 150.033ZM108.085 151.967C108.085 153.27 109.141 154.326 110.444 154.326C111.747 154.324 112.802 153.268 112.803 151.966C112.802 150.663 111.746 149.607 110.443 149.608C109.141 149.608 108.085 150.664 108.085 151.967ZM110.444 150.033C109.376 150.033 108.511 150.898 108.511 151.966C108.511 153.033 109.376 153.899 110.444 153.899C111.512 153.899 112.377 153.033 112.377 151.966C112.376 150.899 111.511 150.034 110.444 150.033ZM81.381 149.783C80.3136 149.783 79.4486 150.649 79.449 151.717C79.4494 152.784 80.3149 153.649 81.3823 153.649C82.4498 153.649 83.315 152.783 83.315 151.716C83.3139 150.648 82.4485 149.783 81.381 149.783ZM124.381 141.72C123.314 141.72 122.449 142.586 122.449 143.653C122.449 144.72 123.314 145.586 124.382 145.586C125.449 145.586 126.314 144.721 126.315 143.654C126.314 142.586 125.449 141.72 124.381 141.72ZM95.194 141.47C94.1266 141.47 93.2612 142.335 93.261 143.403C93.2608 144.47 94.1259 145.335 95.1933 145.336C96.2608 145.336 97.1264 144.471 97.127 143.404C97.1264 142.336 96.2615 141.471 95.194 141.47ZM138.328 133.04C137.546 133.039 136.84 133.51 136.54 134.233C136.241 134.956 136.406 135.788 136.959 136.341C137.512 136.894 138.344 137.06 139.067 136.761C139.79 136.461 140.261 135.756 140.261 134.974C140.26 133.907 139.395 133.041 138.328 133.04ZM107.407 134.973C107.407 136.276 108.462 137.332 109.765 137.333C111.068 137.332 112.124 136.277 112.125 134.974C112.125 133.671 111.069 132.615 109.766 132.615C108.464 132.615 107.407 133.67 107.407 134.973ZM109.765 133.04C108.697 133.04 107.831 133.906 107.831 134.974C107.831 136.042 108.697 136.908 109.765 136.908C110.833 136.908 111.699 136.042 111.699 134.974C111.698 133.906 110.833 133.041 109.765 133.04ZM78.219 134.974C78.219 136.277 79.2752 137.333 80.578 137.333C81.8801 137.331 82.9353 136.276 82.937 134.974C82.937 133.671 81.8808 132.615 80.578 132.615C79.2752 132.615 78.219 133.671 78.219 134.974ZM80.578 133.04C79.7957 133.039 79.0902 133.51 78.7905 134.233C78.4908 134.956 78.6561 135.788 79.2091 136.341C79.7621 136.894 80.5941 137.06 81.3169 136.761C82.0397 136.461 82.511 135.756 82.511 134.974C82.5099 133.907 81.6453 133.041 80.578 133.04ZM123.703 124.728C122.636 124.728 121.77 125.593 121.77 126.661C121.77 127.728 122.635 128.593 123.702 128.594C124.77 128.594 125.635 127.729 125.636 126.662C125.635 125.594 124.77 124.729 123.703 124.728ZM94.515 124.478C93.7221 124.476 93.0098 124.962 92.722 125.701C92.5525 125.993 92.4612 126.324 92.457 126.662C92.4562 127.589 93.115 128.386 94.0261 128.56C94.9373 128.734 95.8433 128.236 96.184 127.373L96.196 127.348C96.3599 127.063 96.447 126.74 96.449 126.412C96.4484 125.344 95.5829 124.478 94.515 124.478ZM139.326 119.028C138.544 119.027 137.838 119.498 137.538 120.221C137.239 120.944 137.404 121.776 137.957 122.329C138.511 122.883 139.343 123.048 140.066 122.748C140.788 122.449 141.259 121.743 141.259 120.961C141.258 119.894 140.393 119.029 139.326 119.028ZM108.405 120.962C108.405 122.264 109.46 123.32 110.763 123.321H110.765C112.067 123.319 113.122 122.263 113.123 120.961C113.122 119.658 112.066 118.603 110.764 118.603C109.461 118.603 108.405 119.659 108.405 120.962ZM110.763 119.028C109.981 119.028 109.275 119.499 108.976 120.222C108.677 120.945 108.842 121.777 109.396 122.33C109.949 122.883 110.781 123.048 111.504 122.748C112.226 122.449 112.697 121.743 112.697 120.961C112.696 119.894 111.832 119.029 110.765 119.028H110.763ZM79.342 120.962C79.3422 122.265 80.3983 123.321 81.701 123.321C83.0033 123.319 84.0583 122.263 84.06 120.961C84.0594 119.658 83.003 118.602 81.7003 118.603C80.3976 118.603 79.3418 119.659 79.342 120.962ZM81.701 119.028C80.9186 119.027 80.213 119.498 79.9134 120.221C79.6138 120.944 79.7792 121.776 80.3324 122.329C80.8857 122.883 81.7178 123.048 82.4406 122.748C83.1633 122.449 83.6344 121.743 83.634 120.961C83.6329 119.894 82.7681 119.029 81.701 119.028ZM124.701 110.715C123.919 110.714 123.213 111.185 122.913 111.908C122.614 112.631 122.779 113.463 123.332 114.016C123.885 114.569 124.717 114.735 125.44 114.436C126.163 114.136 126.634 113.431 126.634 112.649C126.635 111.58 125.77 110.712 124.701 110.711V110.715ZM95.513 110.465C94.4455 110.466 93.5805 111.331 93.58 112.399C93.588 112.463 93.591 112.489 93.592 112.514C93.5916 112.547 93.5892 112.581 93.585 112.614C93.5742 113.68 94.43 114.554 95.4965 114.564C96.563 114.575 97.4362 113.719 97.447 112.653L97.434 112.543L97.442 112.443C97.4527 111.924 97.2545 111.422 96.8919 111.05C96.5292 110.678 96.0324 110.467 95.513 110.465ZM137.953 102.452C136.885 102.452 136.02 103.317 136.02 104.385C136.02 105.452 136.885 106.318 137.953 106.318C139.021 106.318 139.886 105.452 139.886 104.385C139.885 103.318 139.02 102.453 137.953 102.452ZM107.032 104.384C107.032 105.687 108.087 106.743 109.39 106.744C110.693 106.743 111.749 105.688 111.75 104.385C111.75 103.082 110.694 102.026 109.391 102.026C108.089 102.026 107.032 103.081 107.032 104.384ZM109.39 102.452C108.323 102.452 107.458 103.318 107.458 104.386C107.458 105.453 108.324 106.318 109.391 106.318C110.459 106.318 111.324 105.452 111.324 104.385C111.323 103.317 110.457 102.452 109.39 102.452ZM80.578 102.202C79.5104 102.202 78.645 103.067 78.645 104.135C78.645 105.202 79.5104 106.068 80.578 106.068C81.6456 106.068 82.511 105.202 82.511 104.135C82.5099 103.068 81.6451 102.203 80.578 102.202ZM123.328 94.1388C122.261 94.1388 121.395 95.0041 121.395 96.0715C121.395 97.1389 122.26 98.0045 123.327 98.0048C124.395 98.0052 125.26 97.1403 125.261 96.0728C125.26 95.0053 124.395 94.1399 123.328 94.1388ZM94.175 93.8938C93.4758 93.8729 92.82 94.2317 92.4606 94.8318C92.1012 95.4319 92.0944 96.1794 92.4429 96.7859C92.7913 97.3925 93.4406 97.7631 94.14 97.7548C94.154 97.7559 94.168 97.7559 94.182 97.7548C94.2375 97.7491 94.2935 97.7491 94.349 97.7548H94.357C95.0563 97.7756 95.7121 97.4165 96.0713 96.8161C96.4305 96.2158 96.4369 95.4681 96.088 94.8617C95.7391 94.2553 95.0895 93.8851 94.39 93.8938L94.28 93.9068L94.18 93.8988L94.175 93.8938ZM65.953 93.8888C64.8856 93.8888 64.0202 94.7541 64.02 95.8215C64.0198 96.8889 64.8849 97.7545 65.9523 97.7548C67.0198 97.7552 67.8854 96.8903 67.886 95.8228C67.8854 94.7553 67.0205 93.8899 65.953 93.8888ZM138.119 84.4468C137.659 84.8082 137.39 85.3616 137.392 85.9468C137.393 86.945 138.153 87.7785 139.147 87.8718C138.798 86.6812 138.456 85.5395 138.119 84.4468ZM110.763 84.0128C109.696 84.0134 108.831 84.8789 108.831 85.9462C108.831 87.0135 109.696 87.8787 110.764 87.8788C111.831 87.879 112.696 87.0141 112.697 85.9468C112.698 84.879 111.833 84.0125 110.765 84.0108L110.763 84.0128ZM79.342 85.9468C79.342 87.2497 80.3982 88.3058 81.701 88.3058C83.0031 88.3042 84.0583 87.249 84.06 85.9468C84.06 84.644 83.0038 83.5878 81.701 83.5878C80.3982 83.5878 79.342 84.644 79.342 85.9468ZM81.701 84.0128C80.6336 84.0128 79.7682 84.8781 79.768 85.9455C79.7678 87.0129 80.6329 87.8785 81.7003 87.8788C82.7678 87.8792 83.6334 87.0143 83.634 85.9468C83.6345 84.8786 82.7693 84.0119 81.701 84.0108V84.0128ZM54.739 87.0978L54.779 87.7598L55.131 87.2008C55.34 86.866 55.4614 86.4839 55.484 86.0898L55.536 85.2428L55.089 85.9648C54.9091 86.2253 54.787 86.5213 54.731 86.8328C54.7274 86.9213 54.7301 87.0098 54.739 87.0978ZM122.768 77.6338C122.768 76.5663 123.633 75.7008 124.701 75.7008C125.768 75.7019 126.633 76.5667 126.634 77.6338C126.634 78.7014 125.769 79.5668 124.701 79.5668C123.633 79.5668 122.768 78.7014 122.768 77.6338ZM93.58 77.3838C93.5811 76.3167 94.4459 75.4519 95.513 75.4508C96.0319 75.4532 96.5282 75.6635 96.8908 76.0347C97.2533 76.4059 97.4519 76.907 97.442 77.4258L97.434 77.5258L97.447 77.6358C97.4368 78.7023 96.564 79.5586 95.4975 79.5483C94.431 79.5381 93.5748 78.6653 93.585 77.5988C93.5892 77.5657 93.5915 77.5323 93.592 77.4988C93.591 77.4738 93.588 77.4488 93.58 77.3838ZM67.076 79.9938C65.8316 79.9903 64.8044 79.02 64.73 77.7778L64.722 77.6558L64.822 77.5868C65.812 76.9298 66.882 76.2558 68.001 75.5868L68.107 75.5238L68.214 75.5838C69.1561 76.1018 69.627 77.1927 69.3579 78.2336C69.0888 79.2745 68.1481 80.0004 67.073 79.9968L67.076 79.9938ZM66.8715 79.5605C65.9799 79.4629 65.2735 78.7634 65.167 77.8728H65.165C66.089 77.2628 67.08 76.6388 68.114 76.0158C68.8714 76.4962 69.1975 77.4354 68.9008 78.2818C68.6041 79.1281 67.763 79.6582 66.8715 79.5605ZM107.708 69.1202C107.708 68.0529 108.573 67.1874 109.64 67.1868C110.708 67.1874 111.573 68.053 111.574 69.1208C111.573 70.1881 110.708 71.053 109.641 71.0528C108.573 71.0527 107.708 70.1875 107.708 69.1202ZM80.578 71.4798C79.7688 71.4811 79.016 71.0654 78.586 70.3798L78.455 70.1698L78.681 70.0698C79.881 69.5408 81.159 69.0108 82.59 68.4508L82.823 68.3598L82.877 68.6018C83.0382 69.3015 82.8709 70.0365 82.4229 70.5976C81.9748 71.1586 81.295 71.4843 80.577 71.4818L80.578 71.4798ZM81.2358 70.9391C80.4695 71.2152 79.6123 70.9802 79.094 70.3518C80.149 69.8908 81.265 69.4278 82.502 68.9418C82.511 69.0018 82.511 69.0618 82.511 69.1208C82.5124 69.9354 82.0021 70.663 81.2358 70.9391Z" fill="white"/>
<path d="M77.415 118.531C77.415 118.531 90.676 83.6658 93.631 82.4208C96.586 81.1758 90.25 95.3108 77.415 118.531Z" fill="#037A4A"/>
<path d="M185.777 81.9868L187.962 78.4962L215.963 96.0226L213.778 99.5132L185.777 81.9868Z" fill="#3478F6"/>
<path d="M186.153 81.3858L186.299 81.1526L214.312 98.6937L214.166 98.9269L186.153 81.3858Z" fill="white"/>
<path d="M186.796 80.3578L186.942 80.1247L214.943 97.6506L214.798 97.8837L186.796 80.3578Z" fill="white"/>
<path d="M187.439 79.3298L187.585 79.0967L215.586 96.6226L215.441 96.8557L187.439 79.3298Z" fill="white"/>
<path d="M185.777 81.9868L187.964 78.4948L189.428 79.4118L187.241 82.9039L185.777 81.9868Z" fill="#192684"/>
<path d="M185.777 81.9868L185.36 81.7258C184.897 81.4361 184.568 80.9743 184.446 80.4421C184.323 79.9099 184.417 79.3508 184.707 78.8878C185.311 77.9246 186.581 77.6327 187.545 78.2358L187.962 78.4958L185.777 81.9868Z" fill="white"/>
<path d="M215.965 96.0219L213.78 99.5119L216.772 99.9419L217.394 100.032L219.153 100.285L218.065 98.8309L217.641 98.2649L215.965 96.0219Z" fill="white"/>
<path d="M218.065 98.8308C217.897 98.9744 217.752 99.143 217.636 99.3308C217.497 99.5398 217.414 99.7807 217.394 100.031L219.152 100.283L218.065 98.8308Z" fill="#192684"/>
<path d="M201.665 89.6618C200.672 89.76 199.686 89.9167 198.711 90.1308L202.916 92.7118C203.06 92.6548 203.38 92.4678 203.516 92.4118C206.077 91.2718 207.001 89.1878 201.665 89.6618Z" fill="#013BFF"/>
<path d="M189.636 92.8618C189.636 92.8618 196.978 89.5468 201.75 89.0728C206.522 88.5988 205.696 90.6838 203.402 91.8198C201.108 92.9558 196.978 93.6198 196.335 96.2718C195.692 98.9238 188.076 98.6398 189.636 92.8618Z" fill="#FAC896"/>
<path d="M142.389 33.4348C143.202 33.4348 143.861 32.7758 143.861 31.9628C143.861 31.1499 143.202 30.4908 142.389 30.4908C141.576 30.4908 140.917 31.1499 140.917 31.9628C140.917 32.7758 141.576 33.4348 142.389 33.4348Z" fill="#55312F"/>
<path d="M138.542 29.8998C138.508 29.9003 138.475 29.8959 138.442 29.8868C138.242 29.8331 138.123 29.6279 138.176 29.4278C138.334 28.369 139.009 27.4585 139.976 26.9998C140.876 26.763 141.835 26.9341 142.598 27.4678C142.768 27.5868 142.809 27.8208 142.69 27.9903C142.57 28.1599 142.337 28.2008 142.167 28.0818C141.602 27.6902 140.899 27.5538 140.229 27.7058C139.501 28.0909 139.005 28.8051 138.898 29.6218C138.855 29.7836 138.709 29.897 138.542 29.8998Z" fill="#55312F"/>
<path d="M146.665 30.4908C146.665 30.4908 150.665 34.8998 150.29 37.7748C149.915 40.6498 145.165 40.1498 145.165 40.1498L146.665 30.4908Z" fill="#FAC896"/>
<path d="M144.78 44.4038C144.78 44.4038 140.22 43.7038 139.111 42.1578C138.921 41.9748 141.001 49.8018 144.78 44.4038Z" fill="#F74000"/>
</svg>
