<svg width="48" height="53" viewBox="0 0 48 53" fill="none" xmlns="http://www.w3.org/2000/svg">
<path d="M4.8 11.885V16.8C4.8 18.1255 3.72548 19.2 2.4 19.2C1.07452 19.2 0 18.1255 0 16.8V10.2C0 9.18882 0.633785 8.28611 1.58485 7.94267L23.1849 0.142671C23.7116 -0.0475569 24.2884 -0.0475569 24.8151 0.142671L46.4151 7.94267C47.3662 8.28611 48 9.18882 48 10.2V26.4C48 39.5991 40.0109 48.4759 24.6378 52.7137C24.2257 52.8273 23.7908 52.8288 23.378 52.718C7.99501 48.5902 0 39.7068 0 26.4C0 25.0745 1.07452 24 2.4 24C3.72548 24 4.8 25.0745 4.8 26.4C4.8 37.1919 11.0043 44.256 23.9916 47.9088C36.9895 44.1596 43.2 37.0907 43.2 26.4V11.885L24 4.95169L4.8 11.885Z" fill="#313645"/>
<path d="M31.0312 20.4C32.3566 20.4 33.4312 19.3255 33.4312 18C33.4312 16.6745 32.3566 15.6 31.0312 15.6L19.2502 15.6C16.5992 15.6 14.4502 17.749 14.4502 20.4V24.0189C14.4502 26.6699 16.5992 28.8189 19.2502 28.8189H28.8V33.6H16.8C15.4745 33.6 14.4 34.6745 14.4 36C14.4 37.3255 15.4745 38.4 16.8 38.4H28.8C31.451 38.4 33.6 36.2509 33.6 33.6V28.8189C33.6 26.168 31.451 24.0189 28.8 24.0189H19.2502V20.4H31.0312Z" fill="#0080EF"/>
<path d="M26.4 40.8204C26.4 42.1458 25.3255 43.2204 24 43.2204C22.6745 43.2204 21.6 42.1458 21.6 40.8204V36.0204C21.6 34.6949 22.6745 33.6204 24 33.6204C25.3255 33.6204 26.4 34.6949 26.4 36.0204V40.8204Z" fill="#0080EF"/>
<path d="M26.4 16.8116C26.4 18.1371 25.3255 19.2116 24 19.2116C22.6745 19.2116 21.6 18.1371 21.6 16.8116V12.0298C21.6 10.7043 22.6745 9.62976 24 9.62976C25.3255 9.62976 26.4 10.7043 26.4 12.0298V16.8116Z" fill="#0080EF"/>
</svg>
