<svg width="46" height="46" viewBox="0 0 46 46" fill="none" xmlns="http://www.w3.org/2000/svg">
<path fill-rule="evenodd" clip-rule="evenodd" d="M3.33113 30.8929L11.1139 25.1138H22.9565C26.4187 25.1138 29.2174 22.2888 29.2174 18.8136V6.30017C29.2174 2.82504 26.4187 0 22.9565 0H6.26087C2.79869 0 0 2.82504 0 6.30017V29.2174C0 30.9325 1.9541 31.9154 3.33113 30.8929ZM9.17966 21.3513L4.17391 25.0683V6.30017C4.17391 5.12151 5.11268 4.17391 6.26087 4.17391H22.9565C24.1047 4.17391 25.0435 5.12151 25.0435 6.30017V18.8136C25.0435 19.9923 24.1047 20.9399 22.9565 20.9399H10.4238C9.97569 20.9399 9.53945 21.0841 9.17966 21.3513Z" fill="#313645"/>
<path d="M36.7334 35.9599C36.3736 35.6928 35.9374 35.5485 35.4892 35.5485H22.9565C21.8083 35.5485 20.8696 34.6009 20.8696 33.4223V22.9958C20.8696 21.8432 19.9352 20.9088 18.7826 20.9088C17.63 20.9088 16.6957 21.8432 16.6957 22.9958V33.4223C16.6957 36.8974 19.4943 39.7224 22.9565 39.7224H34.7991L42.5819 45.5016C43.9589 46.5241 45.913 45.5412 45.913 43.826V20.9088C45.913 17.4337 43.1144 14.6086 39.6522 14.6086H27.1304C25.9778 14.6086 25.0435 15.543 25.0435 16.6956C25.0435 17.8482 25.9778 18.7826 27.1304 18.7826H39.6522C40.8004 18.7826 41.7391 19.7302 41.7391 20.9088V39.677L36.7334 35.9599Z" fill="#313645"/>
<path d="M10.3405 14.6087C9.18793 14.6087 8.25357 13.6744 8.25357 12.5218C8.25357 11.3692 9.18793 10.4348 10.3405 10.4348H18.684C19.8366 10.4348 20.771 11.3692 20.771 12.5218C20.771 13.6744 19.8366 14.6087 18.684 14.6087H10.3405Z" fill="#0080EF"/>
<path d="M27.0847 29.2174C25.9321 29.2174 24.9977 28.283 24.9977 27.1304C24.9977 25.9778 25.9321 25.0435 27.0847 25.0435H35.4282C36.5808 25.0435 37.5152 25.9778 37.5152 27.1304C37.5152 28.283 36.5808 29.2174 35.4282 29.2174H27.0847Z" fill="#0080EF"/>
</svg>
